<svg width="15" height="15" viewBox="0 0 15 15" fill="none" xmlns="http://www.w3.org/2000/svg">
<path d="M13.125 7.5V11.875C13.125 12.2065 12.9933 12.5245 12.7589 12.7589C12.5245 12.9933 12.2065 13.125 11.875 13.125H3.125C2.79348 13.125 2.47554 12.9933 2.24112 12.7589C2.0067 12.5245 1.875 12.2065 1.875 11.875V7.5H13.125ZM10 1.875C10.1658 1.875 10.3247 1.94085 10.4419 2.05806C10.5592 2.17527 10.625 2.33424 10.625 2.5V3.125H11.875C12.2065 3.125 12.5245 3.2567 12.7589 3.49112C12.9933 3.72554 13.125 4.04348 13.125 4.375V6.25H1.875V4.375C1.875 4.04348 2.0067 3.72554 2.24112 3.49112C2.47554 3.2567 2.79348 3.125 3.125 3.125H4.375V2.5C4.375 2.33424 4.44085 2.17527 4.55806 2.05806C4.67527 1.94085 4.83424 1.875 5 1.875C5.16576 1.875 5.32473 1.94085 5.44194 2.05806C5.55915 2.17527 5.625 2.33424 5.625 2.5V3.125H9.375V2.5C9.375 2.33424 9.44085 2.17527 9.55806 2.05806C9.67527 1.94085 9.83424 1.875 10 1.875Z" fill="white"/>
</svg>
