<svg width="11" height="11" viewBox="0 0 11 11" fill="none" xmlns="http://www.w3.org/2000/svg">
<path fill-rule="evenodd" clip-rule="evenodd" d="M10.1962 4.95538L9.81852 4.62648V10.0395H10.4226C10.6228 10.0395 10.785 10.2161 10.785 10.434C10.785 10.652 10.6228 10.8286 10.4226 10.8286H0.757476C0.557301 10.8286 0.395033 10.652 0.395033 10.434C0.395033 10.2161 0.557301 10.0395 0.757476 10.0395H1.36155V4.62648L0.983891 4.95538C0.827582 5.09152 0.599499 5.0639 0.474456 4.89377C0.349409 4.72359 0.374751 4.47529 0.53106 4.33919L4.45796 0.919355C5.11982 0.342962 6.06028 0.342962 6.7221 0.919355L10.649 4.33919C10.8053 4.47529 10.8307 4.72359 10.7056 4.89377C10.5806 5.0639 10.3525 5.09152 10.1962 4.95538ZM5.59003 2.41149C4.85606 2.41149 4.26109 3.05919 4.26109 3.85818C4.26109 4.65715 4.85606 5.30484 5.59003 5.30484C6.324 5.30484 6.91898 4.65715 6.91898 3.85818C6.91898 3.05919 6.324 2.41149 5.59003 2.41149ZM6.43374 5.86332C6.21203 5.83091 5.93522 5.83091 5.6139 5.83091H5.5662C5.24488 5.83091 4.96803 5.83091 4.74636 5.86332C4.50876 5.89809 4.28102 5.97653 4.0963 6.17764C3.91158 6.37871 3.83954 6.62664 3.8076 6.88526C3.7778 7.12657 3.77781 7.42795 3.77783 7.77774V10.0395H4.50271H6.67735H7.40224V7.77774V7.71271C7.40214 7.3905 7.4004 7.11152 7.37247 6.88526C7.34053 6.62664 7.26852 6.37871 7.08377 6.17764C6.89907 5.97653 6.67131 5.89809 6.43374 5.86332Z" fill="white"/>
</svg>
