<svg width="12" height="15" viewBox="0 0 12 15" fill="none" xmlns="http://www.w3.org/2000/svg">
<path d="M1.48642 0.735718C1.11809 0.735718 0.764857 0.882033 0.504414 1.14248C0.243971 1.40292 0.0976563 1.75615 0.0976562 2.12448V13.2345C0.0976563 13.6029 0.243971 13.9561 0.504414 14.2165C0.764857 14.477 1.11809 14.6233 1.48642 14.6233H9.12459C9.67707 14.6233 10.2069 14.4038 10.5976 14.0132C10.9883 13.6225 11.2077 13.0927 11.2077 12.5402V2.81886C11.2077 2.26637 10.9883 1.73652 10.5976 1.34585C10.2069 0.955191 9.67707 0.735718 9.12459 0.735718H8.43021V7.53578C8.43019 7.60447 8.4098 7.67162 8.3716 7.72873C8.33341 7.78583 8.27913 7.83032 8.21565 7.85656C8.15216 7.8828 8.08231 7.88962 8.01495 7.87615C7.94758 7.86268 7.88572 7.82953 7.83721 7.78089L6.59288 6.53656C6.56063 6.50423 6.52232 6.47858 6.48014 6.46108C6.43796 6.44357 6.39274 6.43456 6.34707 6.43456C6.3014 6.43456 6.25618 6.44357 6.214 6.46108C6.17182 6.47858 6.13351 6.50423 6.10126 6.53656L4.85693 7.78089C4.80842 7.82953 4.74656 7.86268 4.6792 7.87615C4.61183 7.88962 4.54198 7.8828 4.4785 7.85656C4.41501 7.83032 4.36073 7.78583 4.32254 7.72873C4.28434 7.67162 4.26395 7.60447 4.26393 7.53578V0.735718H1.48642Z" fill="white"/>
</svg>
