<?xml version="1.0" encoding="UTF-8"?>
<svg version="1.1" xmlns="http://www.w3.org/2000/svg" width="474" height="288">
<path d="M0 0 C7.27234579 8.69134009 7.19686101 19.93852008 7 30.75 C6.98827759 31.8103949 6.98827759 31.8103949 6.97631836 32.89221191 C6.64974003 60.93831494 -1.87032897 90.61017745 -22.33203125 110.9453125 C-24.30828993 112.74044768 -26.34071272 114.40991541 -28.4375 116.0625 C-29.24832031 116.72121094 -30.05914062 117.37992187 -30.89453125 118.05859375 C-38.89555266 124.25557812 -47.59496957 128.46471861 -57.34765625 131.19140625 C-66.65228602 133.82868363 -71.7036338 137.22283339 -77.4375 145.0625 C-82.86128224 152.05632447 -89.61972994 157.78639734 -97.1875 162.375 C-102.803051 166.2136496 -106.33628468 173.75885403 -108.4375 180.0625 C-108.52041953 182.0545303 -108.54488177 184.04923713 -108.53515625 186.04296875 C-108.53193359 187.20634766 -108.52871094 188.36972656 -108.52539062 189.56835938 C-108.51701172 190.78330078 -108.50863281 191.99824219 -108.5 193.25 C-108.49323242 195.08981445 -108.49323242 195.08981445 -108.48632812 196.96679688 C-108.47453065 199.99874668 -108.45806921 203.03059906 -108.4375 206.0625 C-96.79367716 208.70731119 -85.43918004 209.48498068 -73.50097656 209.59545898 C-65.02016339 209.74438159 -56.40858671 210.14496691 -49.375 215.3125 C-47.13669736 218.48944568 -46.43799113 221.32733311 -45.4375 225.0625 C-43.44667635 227.92928805 -43.44667635 227.92928805 -41.4375 230.0625 C-42.75347883 235.49091267 -46.80391534 239.21341984 -51.4375 242.0625 C-55.94221275 242.87114406 -60.29031977 243.1885176 -64.86108398 243.19189453 C-66.72433571 243.19653969 -66.72433571 243.19653969 -68.62522888 243.20127869 C-69.97801742 243.19946794 -71.33080572 243.19747355 -72.68359375 243.1953125 C-74.11332732 243.19645726 -75.54306066 243.19793524 -76.97279358 243.19972229 C-80.8110925 243.20273315 -84.64934741 243.1984997 -88.48764038 243.19167709 C-90.87766483 243.18749534 -93.26768835 243.18453749 -95.65771484 243.18179321 C-116.22958433 243.15508078 -136.80277167 243.0850229 -157.37283325 242.79803467 C-159.72277256 242.76636872 -162.07277621 242.73912508 -164.42282104 242.71661377 C-197.16364587 242.38292448 -197.16364587 242.38292448 -203.8125 236.75 C-207.21344241 231.24766228 -207.19190658 222.82226615 -205.95703125 216.66796875 C-205.01143629 214.18643501 -203.97478825 212.43344538 -201.77124023 210.91210938 C-198.55968223 209.74292621 -195.70022441 209.76866469 -192.28515625 209.71875 C-191.58917831 209.7041272 -190.89320038 209.68950439 -190.1761322 209.67443848 C-187.95081376 209.62808512 -185.72557664 209.59388355 -183.5 209.5625 C-163.68414707 209.71777291 -163.68414707 209.71777291 -145.4375 203.0625 C-143.77270896 199.73291792 -144.25290935 196.03205686 -144.25 192.375 C-144.23775391 191.58416016 -144.22550781 190.79332031 -144.21289062 189.97851562 C-144.18591216 179.08820953 -148.05660026 172.87266047 -155.4375 165.0625 C-157.3014758 163.48241631 -159.21199607 162.08901964 -161.21484375 160.69140625 C-170.03064058 154.23062017 -176.89492478 146.66096351 -183.0859375 137.71484375 C-185.83024362 134.61952173 -187.45536983 134.00149613 -191.4375 133.0625 C-193.17773438 132.60230469 -193.17773438 132.60230469 -194.953125 132.1328125 C-196.80164063 131.66488281 -196.80164063 131.66488281 -198.6875 131.1875 C-217.69970373 126.14742208 -229.1350887 116.83369173 -240.4375 101.0625 C-241.19160156 100.010625 -241.94570312 98.95875 -242.72265625 97.875 C-258.58159182 73.91853471 -264.76783574 38.71222907 -260.94140625 10.390625 C-259.61487521 4.84467603 -258.2933824 2.32526339 -253.4375 -0.9375 C-237.40235881 -7.49844326 -216.12069521 -5.47056343 -200.4375 1.0625 C-191.6737688 5.10141743 -182.59497457 11.2394515 -178.41796875 20.265625 C-177.50870639 22.41726845 -177.50870639 22.41726845 -174.4375 23.0625 C-171.49708289 23.16954606 -168.58002218 23.21976965 -165.63916016 23.22363281 C-164.73967148 23.22859772 -163.8401828 23.23356262 -162.91343689 23.23867798 C-159.93447101 23.25329653 -156.95555837 23.26010082 -153.9765625 23.265625 C-151.90774534 23.27137634 -149.83892821 23.27713408 -147.77011108 23.28289795 C-143.43072257 23.29340681 -139.09135258 23.29925035 -134.75195312 23.30273438 C-129.19112939 23.30822133 -123.63055023 23.33225423 -118.06980324 23.36070633 C-113.79586063 23.37932722 -109.52197703 23.384538 -105.24799728 23.38607025 C-103.19787635 23.38909813 -101.14775649 23.3971312 -99.09767532 23.41025543 C-96.2298036 23.42730561 -93.36253072 23.42543823 -90.49462891 23.41894531 C-89.64769974 23.4281601 -88.80077057 23.43737488 -87.92817688 23.4468689 C-83.25410872 23.41371118 -80.24905716 23.05970707 -76.4375 20.0625 C-74.8479046 18.33456097 -73.30892658 16.55922478 -71.8125 14.75 C-66.86279646 9.20254139 -62.13309952 6.14162284 -55.4375 3.0625 C-54.17445795 2.43887089 -52.91281284 1.81240707 -51.65234375 1.18359375 C-50.33161524 0.53724876 -49.01000569 -0.10729918 -47.6875 -0.75 C-46.76674683 -1.20391113 -46.76674683 -1.20391113 -45.82739258 -1.66699219 C-32.78042949 -7.80632585 -12.49548554 -7.04291003 0 0 Z M-239.4375 20.0625 C-240.37222497 46.78871018 -234.96739591 74.70926292 -217.0625 95.625 C-210.41048679 102.43982472 -201.45022107 110.61487951 -191.5 111.25 C-190.819375 111.188125 -190.13875 111.12625 -189.4375 111.0625 C-188.37225272 107.2749541 -188.66853465 104.28037042 -189.18832397 100.42471313 C-189.66086643 95.94496437 -189.59446527 91.44964984 -189.61328125 86.94921875 C-189.63647784 84.79230793 -189.66059511 82.63540685 -189.68554688 80.47851562 C-189.72059706 77.11492339 -189.74999324 73.75169191 -189.76342773 70.38793945 C-189.77901283 67.11626752 -189.81927843 63.84561654 -189.86328125 60.57421875 C-189.86137283 59.58427414 -189.85946442 58.59432953 -189.85749817 57.5743866 C-189.96577729 51.30805047 -191.11149725 46.29087556 -193.48503113 40.48518372 C-194.37010929 38.23391388 -194.94053083 36.11159097 -195.4375 33.75 C-196.70396213 29.0799209 -198.14221863 25.54073677 -202.3359375 22.83984375 C-209.46764676 19.14142947 -215.99638939 18.74219069 -223.9375 18.375 C-225.50564453 18.28508789 -225.50564453 18.28508789 -227.10546875 18.19335938 C-228.11222656 18.14630859 -229.11898437 18.09925781 -230.15625 18.05078125 C-231.07341797 18.00477783 -231.99058594 17.95877441 -232.93554688 17.91137695 C-235.60582857 18.07266739 -237.16129834 18.70043956 -239.4375 20.0625 Z M-56.8125 27.625 C-58.75271955 31.72931059 -60.13497005 35.8984281 -61.4921875 40.2265625 C-62.53004587 43.3401376 -63.97212426 46.13174852 -65.4375 49.0625 C-66.58292694 54.12789593 -66.50136373 58.97279722 -66.3515625 64.125 C-66.33032318 64.99334473 -66.30908386 65.86168945 -66.28720093 66.75634766 C-66.24107442 68.59203032 -66.19215794 70.42764475 -66.140625 72.26318359 C-66.06353017 75.02558769 -65.99585368 77.78809616 -65.9296875 80.55078125 C-65.67976792 90.41427403 -65.2700963 100.22836007 -64.4375 110.0625 C-59.85127475 111.59124175 -56.91802708 109.58940436 -52.62890625 107.6796875 C-41.05695208 101.81580864 -35.59577915 92.99851063 -29.4375 82.0625 C-28.9930957 81.29905273 -28.54869141 80.53560547 -28.09082031 79.74902344 C-17.31171597 61.17686585 -12.74379193 42.93363705 -15.82739258 21.33105469 C-16.02872803 20.58243164 -16.23006348 19.83380859 -16.4375 19.0625 C-27.30945713 13.62652143 -48.78185817 18.96036013 -56.8125 27.625 Z " fill="#FEFDFE" transform="translate(364.4375,25.9375)"/>
<path d="M0 0 C-1 2 -1 2 -3.375 2.9375 C-6.16914195 4.06846222 -7.269543 4.56435677 -9 7 C-9.24523423 9.5924762 -9.32866939 11.91866061 -9.25 14.5 C-9.24484375 15.17675781 -9.2396875 15.85351562 -9.234375 16.55078125 C-9.18595218 19.61957737 -8.97638936 22.07083192 -8 25 C-7.34 25 -6.68 25 -6 25 C-6 25.66 -6 26.32 -6 27 C4.7499995 29.6434425 15.31589504 30.14712777 26.35620117 30.20532227 C27.5379895 30.21522186 28.71977783 30.22512146 29.93737793 30.23532104 C33.8058885 30.26666378 37.67441132 30.29158476 41.54296875 30.31640625 C44.24010431 30.33649094 46.93722846 30.35795162 49.63435364 30.37937927 C55.98404693 30.42904374 62.33376406 30.4740785 68.68350345 30.51740164 C75.91944087 30.56700019 83.15533575 30.6218335 90.39123189 30.67708123 C105.26078152 30.79049769 120.13037135 30.89742253 135 31 C135 31.33 135 31.66 135 32 C101.18810622 32.66260127 67.38028476 33.2618903 33.5625 32.75 C31.83555908 32.73067917 31.83555908 32.73067917 30.07373047 32.71096802 C-2.73141608 32.31614157 -2.73141608 32.31614157 -9.375 26.6875 C-12.77594241 21.18516228 -12.75440658 12.75976615 -11.51953125 6.60546875 C-10.52167268 3.98677914 -9.34949887 2.26794913 -7.125 0.5625 C-4.67231153 -0.08674107 -2.52647853 -0.14035992 0 0 Z " fill="#F3EDEF" transform="translate(170,236)"/>
<path d="M0 0 C9.40228594 -0.1170409 18.62895894 0.11504503 28 1 C28 1.33 28 1.66 28 2 C27.31897217 1.99476318 26.63794434 1.98952637 25.9362793 1.98413086 C22.85336223 1.96335542 19.7704599 1.95033802 16.6875 1.9375 C15.61564453 1.92912109 14.54378906 1.92074219 13.43945312 1.91210938 C12.41142578 1.90888672 11.38339844 1.90566406 10.32421875 1.90234375 C9.37635498 1.89710693 8.42849121 1.89187012 7.4519043 1.88647461 C4.86161319 1.89501146 4.86161319 1.89501146 2 3 C1.28369656 23.48097242 3.85523382 42.47976157 13.4375 60.8125 C15 64 15 64 14 67 C13.01 64.03 13.01 64.03 12 61 C11.34 61 10.68 61 10 61 C2.03012121 40.23318412 -0.57956768 22.22567734 0 0 Z " fill="#EFEAEB" transform="translate(124,43)"/>
<path d="M0 0 C1.97119141 1.35327148 1.97119141 1.35327148 4 4 C4.60237322 7.44376663 4.51228594 10.85986622 4.4609375 14.34765625 C4.46002106 15.35589951 4.45910461 16.36414276 4.4581604 17.40293884 C4.45212361 19.53210159 4.43637536 21.66125581 4.41162109 23.7902832 C4.37509663 27.05386544 4.37060189 30.31631278 4.37109375 33.58007812 C4.3612632 35.64844734 4.34960647 37.71680884 4.3359375 39.78515625 C4.33371185 40.76331802 4.33148621 41.7414798 4.32919312 42.74928284 C4.31643341 43.65710007 4.30367371 44.5649173 4.29052734 45.50024414 C4.28290375 46.29870255 4.27528015 47.09716095 4.26742554 47.91981506 C4 50 4 50 2 53 C1.98969254 52.4097554 1.97938507 51.8195108 1.96876526 51.21138 C1.86050894 45.06309358 1.74592674 38.91494804 1.62768555 32.7668457 C1.58439801 30.4729304 1.54271858 28.17898417 1.50268555 25.88500977 C1.44483334 22.58600546 1.38118178 19.28715599 1.31640625 15.98828125 C1.29969376 14.96414627 1.28298126 13.94001129 1.26576233 12.88484192 C1.24581711 11.92422348 1.22587189 10.96360504 1.20532227 9.97387695 C1.18977798 9.13226517 1.1742337 8.29065338 1.15821838 7.42353821 C0.99199385 4.87736443 0.55374448 2.48830329 0 0 Z " fill="#EEEBED" transform="translate(172,70)"/>
<path d="M0 0 C-1 2 -1 2 -3.375 2.9375 C-6.16914195 4.06846222 -7.269543 4.56435677 -9 7 C-9.24523423 9.5924762 -9.32866939 11.91866061 -9.25 14.5 C-9.24484375 15.17675781 -9.2396875 15.85351562 -9.234375 16.55078125 C-9.18595218 19.61957737 -8.97638936 22.07083192 -8 25 C-7.34 25 -6.68 25 -6 25 C-6 25.66 -6 26.32 -6 27 C0.66957927 28.64006048 7.15182898 29.51358785 14 30 C14 30.66 14 31.32 14 32 C-3.85956384 31.12364238 -3.85956384 31.12364238 -9.19140625 25.8203125 C-12.68850051 20.36696032 -12.77066933 12.8786145 -11.5234375 6.6015625 C-10.51975546 3.9875774 -9.34792809 2.26674487 -7.125 0.5625 C-4.67231153 -0.08674107 -2.52647853 -0.14035992 0 0 Z " fill="#F8F3F5" transform="translate(170,236)"/>
<path d="M0 0 C-7.44049734 2.90053286 -7.44049734 2.90053286 -10.8125 3.5 C-13.50868769 4.11627147 -14.24534903 4.88601892 -16 7 C-20.44572569 17.33676961 -19.50752742 28.75561216 -18.22265625 39.66796875 C-17.86134529 43.45222567 -17.93873081 47.20131024 -18 51 C-18.33 51 -18.66 51 -19 51 C-21.60486354 37.16166243 -24.42731981 18.114855 -18 5 C-14.74618532 1.0762823 -10.9988132 0.24237721 -6.18359375 -0.80078125 C-3.86288278 -1.0125098 -2.20939674 -0.69638582 0 0 Z " fill="#ECE9EA" transform="translate(124,24)"/>
<path d="M0 0 C0.33 0 0.66 0 1 0 C0.67 4.29 0.34 8.58 0 13 C-0.66 13 -1.32 13 -2 13 C-2.2475 13.804375 -2.495 14.60875 -2.75 15.4375 C-6.55235777 26.27421965 -12.18976037 35.78614639 -19 45 C-19.66 44.67 -20.32 44.34 -21 44 C-20.53851563 43.28199219 -20.07703125 42.56398437 -19.6015625 41.82421875 C-6.91801656 22.11957156 -6.91801656 22.11957156 0 0 Z " fill="#EDEBEC" transform="translate(347,77)"/>
<path d="M0 0 C0.66 0 1.32 0 2 0 C2 0.66 2 1.32 2 2 C3.0828125 2.37125 3.0828125 2.37125 4.1875 2.75 C7 4 7 4 9.25 5.875 C12.89343568 8.69038212 16.75328819 10.27855233 21 12 C21.69738281 12.29132813 22.39476562 12.58265625 23.11328125 12.8828125 C26.48027002 14.22960801 29.30648931 15.04378419 32.9375 15.5625 C34.4534375 15.7790625 34.4534375 15.7790625 36 16 C36.495 16.99 36.495 16.99 37 18 C23.19584372 17.50699442 9.9779367 11.44880369 0 2 C0 1.34 0 0.68 0 0 Z " fill="#F2ECED" transform="translate(136,140)"/>
<path d="M0 0 C0.66 0.33 1.32 0.66 2 1 C-1.75 4 -1.75 4 -4 4 C-4.37318359 4.86431641 -4.37318359 4.86431641 -4.75390625 5.74609375 C-6.17778148 8.32156712 -7.82428143 10.02011557 -9.9375 12.0625 C-10.62714844 12.73410156 -11.31679688 13.40570313 -12.02734375 14.09765625 C-13.00380859 15.03931641 -13.00380859 15.03931641 -14 16 C-14.51691406 16.57621094 -15.03382813 17.15242188 -15.56640625 17.74609375 C-17 19 -17 19 -20 19 C-20 18.34 -20 17.68 -20 17 C-18.9171875 16.36578125 -18.9171875 16.36578125 -17.8125 15.71875 C-14.53008397 13.71282909 -12.50421205 11.41114651 -10 8.5 C-6.93311422 4.93474528 -4.2935136 2.03071589 0 0 Z " fill="#F5F2F3" transform="translate(303,32)"/>
<path d="M0 0 C0.66 0.33 1.32 0.66 2 1 C0.02 2.98 -1.96 4.96 -4 7 C-4.99 6.67 -5.98 6.34 -7 6 C-4.69 4.02 -2.38 2.04 0 0 Z M-8 7 C-7.67 7.66 -7.34 8.32 -7 9 C-9.25 10.5625 -9.25 10.5625 -12 12 C-13.32 11.67 -14.64 11.34 -16 11 C-13.36 9.68 -10.72 8.36 -8 7 Z " fill="#F4F2F3" transform="translate(325,123)"/>
<path d="M0 0 C-7.42962963 2.8962963 -7.42962963 2.8962963 -10.75 3.5 C-13.42769962 4.09504436 -14.9310873 5.23759289 -17 7 C-17 4 -17 4 -15.5625 2.4375 C-10.7229011 -0.27739694 -5.38404511 -1.71310526 0 0 Z " fill="#F3EFF0" transform="translate(124,24)"/>
<path d="M0 0 C0.66 0 1.32 0 2 0 C3.01351664 1.65848177 4.01120795 3.32665961 5 5 C5.70125 5.680625 6.4025 6.36125 7.125 7.0625 C9.09732587 9.10057007 9.60548202 10.23837416 10 13 C6.40523299 9.50794062 3.07973809 5.95966325 0 2 C0 1.34 0 0.68 0 0 Z " fill="#F5F3F4" transform="translate(124,125)"/>
<path d="M0 0 C0.66 0 1.32 0 2 0 C2 0.66 2 1.32 2 2 C4.475 2.99 4.475 2.99 7 4 C7 4.99 7 5.98 7 7 C5.82780457 6.21654285 4.66236332 5.42297164 3.5 4.625 C2.8503125 4.18414062 2.200625 3.74328125 1.53125 3.2890625 C1.0259375 2.86367187 0.520625 2.43828125 0 2 C0 1.34 0 0.68 0 0 Z " fill="#F8F4F5" transform="translate(136,140)"/>
</svg>
