<svg xmlns="http://www.w3.org/2000/svg" width="40" height="40" viewBox="0 0 40 41" fill="none">
  <path d="M35 29.2814V14.2814H11.6667V29.2814H35ZM35 5.94808C35.884 5.94808 36.7319 6.29927 37.357 6.92439C37.9821 7.54951 38.3333 8.39736 38.3333 9.28141V29.2814C38.3333 30.1655 37.9821 31.0133 37.357 31.6384C36.7319 32.2636 35.884 32.6147 35 32.6147H11.6667C10.7826 32.6147 9.93476 32.2636 9.30963 31.6384C8.68451 31.0133 8.33332 30.1655 8.33332 29.2814V9.28141C8.33332 8.39736 8.68451 7.54951 9.30963 6.92439C9.93476 6.29927 10.7826 5.94808 11.6667 5.94808H13.3333V2.61475H16.6667V5.94808H30V2.61475H33.3333V5.94808H35ZM4.99999 35.9481H28.3333V39.2814H4.99999C4.11593 39.2814 3.26809 38.9302 2.64297 38.3051C2.01785 37.68 1.66666 36.8321 1.66666 35.9481V15.9481H4.99999V35.9481ZM31.6667 25.9481H25V19.2814H31.6667V25.9481Z" fill="#E3E3E3"/>
</svg>