<svg width="91" height="91" viewBox="0 0 91 91" fill="none" xmlns="http://www.w3.org/2000/svg">
<path d="M79.6297 5.88936C82.7606 5.66755 85.3115 8.23261 85.3115 11.375V54.0312C85.3115 57.1735 82.7407 59.6618 79.6609 60.2818C69.5571 62.3179 62.6752 71.2501 60.2808 79.6619C59.658 82.7389 57.1726 85.3125 54.0302 85.3125H11.374C8.23163 85.3125 5.66657 82.7616 5.88838 79.6306C7.25902 60.5259 15.4655 42.5541 29.0052 29.0062C42.5532 15.4665 60.5249 7.26 79.6297 5.88936ZM48.4508 82.4687H54.0302C55.4919 82.4687 57.0673 81.1975 57.4911 79.0989L57.5138 78.9908L57.5423 78.8827C57.6503 78.5074 57.766 78.131 57.8892 77.7538C59.7348 71.0425 63.9748 65.3266 69.6339 61.5814C72.4705 59.5762 75.6936 58.1835 79.0979 57.492C81.1966 57.0683 82.4677 55.4929 82.4677 54.0312V48.4546C73.6736 49.1363 65.4129 52.9398 59.1774 59.1784C52.9294 65.4076 49.1233 73.6716 48.4508 82.4687ZM82.4677 39.9006V31.3551C69.1364 32.0506 56.5346 37.6566 47.0915 47.0925C37.6624 56.5402 32.0576 69.1393 31.3542 82.4687H39.8996C40.598 71.4083 45.3091 60.983 53.1487 53.1496C60.982 45.3101 71.4073 40.5989 82.4677 39.9006ZM82.4677 22.8154V14.2756C64.6091 14.987 47.6737 22.3988 35.034 35.035C22.4096 47.6827 14.9999 64.6133 14.2746 82.4687H22.8144C23.5319 66.8769 30.0387 52.1132 41.0627 41.0637C52.1043 30.0282 66.8727 23.5193 82.4677 22.8154ZM57.8892 77.7566C59.7348 71.0454 63.9748 65.3294 69.6339 61.5814C63.8383 65.6337 59.8343 71.8132 57.8892 77.7538" fill="#E3E3E3"/>
</svg>
