<svg width="91" height="91" viewBox="0 0 91 91" fill="none" xmlns="http://www.w3.org/2000/svg">
<path d="M46.6093 13.7046C46.2691 13.704 45.9331 13.7797 45.626 13.9262C45.3189 14.0726 45.0485 14.2861 44.8348 14.5509L44.4299 14.8512C36.5811 12.4215 27.6267 14.2051 21.3932 20.2111C18.7822 22.6875 16.8398 25.7841 15.7467 29.2128C14.6537 32.6414 14.4455 36.2909 15.1415 39.8216L14.914 40.0309L11.3696 43.4434C10.6839 44.0938 10.1379 44.8771 9.76478 45.7453C9.39165 46.6136 9.19922 47.5488 9.19922 48.4939C9.19922 49.439 9.39165 50.3741 9.76478 51.2424C10.1379 52.1107 10.6839 52.894 11.3696 53.5444C13.1805 55.2916 15.6921 55.9468 18.0262 55.51C18.3129 56.8249 18.9817 58.0762 20.0419 59.0954C21.4387 60.4422 23.2542 61.1383 25.0833 61.1884C25.1333 62.9492 25.8568 64.6964 27.2536 66.0432C28.6505 67.39 30.4705 68.0907 32.2996 68.1362C32.3451 69.8971 33.0731 71.6488 34.4699 72.9956C35.8072 74.2647 37.559 75.0064 39.401 75.0834C41.243 75.1603 43.0506 74.5674 44.489 73.4142L46.4774 75.3252C49.3894 78.1326 54.1123 78.1326 57.0243 75.3252C58.4166 73.9875 59.14 72.2494 59.2037 70.4931C61.0237 70.4385 62.821 69.7424 64.2087 68.4047C65.5965 67.067 66.3245 65.3243 66.3791 63.568C68.2278 63.5011 69.9877 62.7579 71.3249 61.4796C72.4306 60.4194 73.1131 59.1045 73.377 57.7304C74.5482 57.9354 75.7511 57.8627 76.8891 57.5182C78.027 57.1736 79.0682 56.5668 79.929 55.7466C80.6153 55.0961 81.162 54.3126 81.5355 53.4439C81.9091 52.5752 82.1018 51.6395 82.1018 50.6938C82.1018 49.7482 81.9091 48.8125 81.5355 47.9438C81.162 47.075 80.6153 46.2915 79.929 45.641L76.653 42.4879L77.3218 39.9854C78.67 34.8689 77.9851 29.4292 75.4108 24.8066C71.607 17.9543 64.2269 13.7228 56.2462 13.7228H50.6497L49.9263 13.7046H46.6093ZM57.7705 30.6124L68.7132 41.1547L68.7269 41.1638L76.6484 48.7987C76.9058 49.0428 77.1107 49.3366 77.2507 49.6625C77.3908 49.9883 77.463 50.3392 77.463 50.6938C77.463 51.0485 77.3908 51.3994 77.2507 51.7252C77.1107 52.051 76.9058 52.3449 76.6484 52.5889C76.1164 53.0912 75.4123 53.3711 74.6806 53.3711C73.9488 53.3711 73.2448 53.0912 72.7127 52.5889L66.7021 46.8013C66.2616 46.3786 65.6747 46.1426 65.0641 46.1426C64.4536 46.1426 63.8667 46.3786 63.4261 46.8013L63.3624 46.8559C63.1491 47.0598 62.9793 47.3048 62.8633 47.5762C62.7473 47.8476 62.6874 48.1396 62.6874 48.4347C62.6874 48.7299 62.7473 49.0219 62.8633 49.2933C62.9793 49.5647 63.1491 49.8097 63.3624 50.0136L68.0489 54.5272C69.1409 55.5737 69.1409 57.2754 68.0489 58.3264C67.5657 58.7844 66.9381 59.0598 66.2739 59.1055C65.6097 59.1511 64.9503 58.9642 64.4089 58.5767C63.9571 58.2502 63.4052 58.0924 62.8491 58.1307C62.293 58.1689 61.7679 58.4008 61.365 58.786C60.9713 59.1625 60.7335 59.6733 60.6989 60.217C60.6644 60.7606 60.8355 61.2974 61.1784 61.7207C61.5869 62.2323 61.7883 62.8787 61.7428 63.5317C61.6973 64.1848 61.4082 64.797 60.9327 65.247C60.4426 65.7118 59.8041 65.9886 59.1298 66.0285C58.4556 66.0685 57.7888 65.8691 57.2472 65.4654C56.7977 65.1282 56.2434 64.9606 55.6823 64.9922C55.1212 65.0238 54.5893 65.2527 54.1805 65.6383C53.7817 66.0142 53.5398 66.5271 53.5035 67.0741C53.4672 67.621 53.6392 68.1614 53.9849 68.5867C54.405 69.1043 54.6136 69.7617 54.5688 70.4268C54.5241 71.0919 54.2293 71.7154 53.7437 72.1721C53.2052 72.6832 52.491 72.9681 51.7486 72.9681C51.0061 72.9681 50.2919 72.6832 49.7534 72.1721L47.7832 70.2747L48.5021 69.5831C49.1885 68.9327 49.7351 68.1492 50.1087 67.2804C50.4823 66.4117 50.6749 65.476 50.6749 64.5304C50.6749 63.5847 50.4823 62.649 50.1087 61.7803C49.7351 60.9116 49.1885 60.1281 48.5021 59.4776C47.1414 58.1758 45.3434 57.4294 43.4607 57.3846C43.4045 55.5424 42.6248 53.7965 41.2904 52.5252C39.9278 51.2241 38.128 50.4792 36.2444 50.4367C36.1882 48.5945 35.4085 46.8487 34.0741 45.5773C33.2 44.7454 32.1403 44.1335 30.9827 43.7925C29.8251 43.4515 28.603 43.3911 27.4174 43.6163C27.1167 42.2474 26.415 40.9992 25.4018 40.0309C24.6252 39.2882 23.6992 38.7198 22.6854 38.3636C21.6717 38.0074 20.5936 37.8715 19.5232 37.9652C19.1655 35.299 19.445 32.586 20.3387 30.0487C21.2324 27.5114 22.715 25.2222 24.6647 23.3688C26.6353 21.4857 28.9982 20.062 31.5839 19.1998C34.1697 18.3377 36.9141 18.0584 39.6205 18.382L33.0003 23.2505C32.1532 23.866 31.4397 24.6467 30.9028 25.5456C30.3659 26.4445 30.0167 27.4429 29.8764 28.4805C29.7361 29.5181 29.8075 30.5734 30.0863 31.5826C30.3652 32.5919 30.8457 33.5341 31.4988 34.3525C32.8203 36.0077 34.7288 37.0902 36.8277 37.3749C38.9265 37.6596 41.0544 37.1247 42.7691 35.8813L49.9399 30.6169L57.7705 30.6124ZM35.6939 26.9132L47.4875 18.2546H49.9263C50.1494 18.2525 50.3725 18.2585 50.5951 18.2728H56.2462C62.6344 18.2728 68.463 21.6625 71.4341 27.0179C73.4452 30.6397 73.973 34.8484 72.922 38.8206L72.9083 38.8661L60.3503 26.7312C59.9247 26.3043 59.347 26.0637 58.7442 26.0624H49.1892C48.7063 26.0633 48.2362 26.2179 47.8469 26.5037L40.0755 32.2094C39.3118 32.755 38.3687 32.9886 37.4387 32.8626C36.5086 32.7366 35.6616 32.2605 35.0705 31.5315C34.7954 31.1926 34.5925 30.8009 34.4745 30.3806C34.3564 29.9603 34.3256 29.5203 34.384 29.0876C34.4424 28.655 34.5887 28.2389 34.814 27.8649C35.0393 27.491 35.3387 27.1671 35.6939 26.9132ZM37.705 66.0887L37.7505 66.0432L41.2904 62.6307L41.3313 62.5943C41.8663 62.1093 42.5647 61.8441 43.2868 61.8517C44.0088 61.8593 44.7015 62.1391 45.2261 62.6353C45.4835 62.8793 45.6884 63.1732 45.8284 63.499C45.9685 63.8248 46.0407 64.1757 46.0407 64.5304C46.0407 64.885 45.9685 65.2359 45.8284 65.5617C45.6884 65.8875 45.4835 66.1814 45.2261 66.4254L41.6817 69.8379C41.1496 70.3403 40.4456 70.6202 39.7138 70.6202C38.9821 70.6202 38.278 70.3403 37.7459 69.8379C37.492 69.5975 37.2889 69.3086 37.1487 68.9882C37.0085 68.6679 36.9341 68.3226 36.9299 67.973C36.9256 67.6233 36.9917 67.2764 37.124 66.9527C37.2564 66.629 37.4569 66.3352 37.705 66.0887ZM38.0508 59.4366L38.0053 59.4776L34.4654 62.8901L34.4199 62.931C33.8846 63.4141 33.1869 63.6778 32.4659 63.6693C31.7449 63.6609 31.0535 63.381 30.5296 62.8855C30.2752 62.6441 30.072 62.3539 29.9322 62.0322C29.7923 61.7105 29.7187 61.3639 29.7157 61.0132C29.7128 60.6624 29.7805 60.3146 29.9149 59.9906C30.0492 59.6666 30.2475 59.373 30.4978 59.1272L30.5296 59.0954L34.0695 55.6829L34.1014 55.651C34.6358 55.1622 35.3354 54.8937 36.0596 54.8997C36.7838 54.9056 37.479 55.1854 38.0053 55.6829C38.2599 55.9234 38.4636 56.2126 38.6042 56.5334C38.7448 56.8541 38.8195 57.1999 38.8237 57.5501C38.8279 57.9003 38.7617 58.2478 38.6289 58.5719C38.4961 58.896 38.2995 59.1901 38.0508 59.4366ZM30.7935 52.5252L27.2491 55.9377L27.2172 55.9695C26.6829 56.4584 25.9832 56.7268 25.259 56.7209C24.5348 56.715 23.8397 56.4352 23.3133 55.9377C23.056 55.6937 22.8511 55.3998 22.711 55.074C22.571 54.7482 22.4988 54.3973 22.4988 54.0426C22.4988 53.688 22.571 53.3371 22.711 53.0113C22.8511 52.6854 23.056 52.3916 23.3133 52.1475L26.8532 48.735C27.3855 48.2314 28.0906 47.9507 28.8234 47.9507C29.5562 47.9507 30.2612 48.2314 30.7935 48.735C31.0487 48.9766 31.2525 49.2671 31.3927 49.5892C31.533 49.9113 31.6068 50.2584 31.6098 50.6097C31.6128 50.961 31.5448 51.3093 31.41 51.6338C31.2753 51.9582 31.0764 52.2521 30.8254 52.4979L30.7935 52.5252ZM22.1212 46.9787L18.5813 50.3912C18.049 50.8949 17.344 51.1756 16.6112 51.1756C15.8784 51.1756 15.1733 50.8949 14.641 50.3912C14.383 50.1472 14.1775 49.853 14.037 49.5268C13.8965 49.2005 13.8241 48.8491 13.8241 48.4939C13.8241 48.1387 13.8965 47.7872 14.037 47.461C14.1775 47.1348 14.383 46.8406 14.641 46.5965L18.1855 43.184C18.7176 42.6817 19.4216 42.4018 20.1534 42.4018C20.8851 42.4018 21.5892 42.6817 22.1212 43.184C22.3793 43.4281 22.5848 43.7223 22.7253 44.0485C22.8658 44.3747 22.9382 44.7262 22.9382 45.0814C22.9382 45.4366 22.8658 45.788 22.7253 46.1143C22.5848 46.4405 22.3793 46.7347 22.1212 46.9787Z" fill="url(#paint0_linear_390_948)"/>
<defs>
<linearGradient id="paint0_linear_390_948" x1="82.1018" y1="45.5677" x2="9.19922" y2="45.5677" gradientUnits="userSpaceOnUse">
<stop stop-color="#CFB013" stop-opacity="0.83"/>
<stop offset="0.0665077" stop-color="#B99B22" stop-opacity="0.851795"/>
<stop offset="0.254062" stop-color="#BA8C3A" stop-opacity="0.756193"/>
<stop offset="0.335393" stop-color="#BB7C55" stop-opacity="0.652721"/>
<stop offset="0.368726" stop-color="#BB775D" stop-opacity="0.621366"/>
</linearGradient>
</defs>
</svg>
