<svg width="79" height="65" viewBox="0 0 79 65" fill="none" xmlns="http://www.w3.org/2000/svg">
<path d="M3.47656 9.75002L24.3307 2.16669L45.1849 9.75002L35.7057 15.4375V21.125C35.7057 21.125 33.1767 19.2292 24.3307 19.2292C15.4848 19.2292 12.9557 21.125 12.9557 21.125V15.4375L3.47656 9.75002ZM3.47656 9.75002V24.9167" stroke="#E3E3E3" stroke-width="3" stroke-linecap="round" stroke-linejoin="round"/>
<path d="M35.707 19.2292V22.6C35.707 29.114 30.6148 34.3958 24.332 34.3958C18.0492 34.3958 12.957 29.114 12.957 22.6V19.2292M52.0794 28.8221C52.0794 28.8221 53.9184 27.4836 60.3529 27.4836C66.7873 27.4836 68.6263 28.8183 68.6263 28.8183M52.0794 28.8221V24.9167L45.1862 21.125L60.3529 15.4375L75.5195 21.125L68.6263 24.9167V28.8183M52.0794 28.8221V29.9141C52.0794 32.1083 52.9511 34.2127 54.5027 35.7643C56.0542 37.3158 58.1586 38.1875 60.3529 38.1875C62.5471 38.1875 64.6515 37.3158 66.2031 35.7643C67.7546 34.2127 68.6263 32.1083 68.6263 29.9141V28.8183M54.6654 62.8333H68.7135C71.6445 62.8333 73.9725 61.4077 76.0655 59.4133C80.3501 55.3334 73.3166 52.0726 70.6359 50.4763C68.2519 49.0691 65.6046 48.1658 62.8577 47.8221C60.1108 47.4784 57.3226 47.7017 54.6654 48.4781M10.6252 47.3861C7.04961 49.3843 -2.32718 53.4603 3.38307 58.5601C6.17374 61.0513 9.27911 62.8333 13.1883 62.8333H35.4757C39.3812 62.8333 42.4903 61.0513 45.281 58.5601C50.9912 53.4603 41.6144 49.3843 38.0389 47.3861C29.6517 42.7034 19.0123 42.7034 10.6252 47.3861Z" stroke="#E3E3E3" stroke-width="3" stroke-linecap="round" stroke-linejoin="round"/>
</svg>
