<svg
  xmlns="http://www.w3.org/2000/svg"
  width="43"
  height="43"
  viewBox="0 0 43 44"
  fill="none"
>
  <path
    fill-rule="evenodd"
    clip-rule="evenodd"
    d="M21.5 4.53143C31.3952 4.53143 39.4167 12.5529 39.4167 22.4481C39.4167 32.3431 31.3952 40.3648 21.5 40.3648C11.605 40.3648 3.58336 32.3432 3.58336 22.4481C3.58336 12.5529 11.605 4.53143 21.5 4.53143ZM23.2956 20.6564H19.7123V31.4064H23.2956V20.6564ZM21.5182 13.0418C20.2119 13.0418 19.2643 13.9841 19.2643 15.2566C19.2643 16.5805 20.187 17.521 21.5182 17.521C22.7977 17.521 23.7436 16.5804 23.7436 15.2814C23.7436 13.9842 22.7977 13.0418 21.5182 13.0418Z"
    fill="#E3E3E3"
  />
</svg>
