<svg xmlns="http://www.w3.org/2000/svg" width="41" height="41" viewBox="0 0 41 42" fill="none">
  <path d="M9.59404 35.1147C8.80707 35.1147 8.1505 34.8516 7.62433 34.3255C7.09817 33.7993 6.83451 33.1422 6.83337 32.354V10.542C6.83337 9.75507 7.09703 9.0985 7.62433 8.57233C8.15164 8.04616 8.80821 7.78251 9.59404 7.78137H26.6107L34.1667 15.3373V32.3557C34.1667 33.1416 33.9036 33.7981 33.3775 34.3255C32.8513 34.8528 32.1942 35.1158 31.406 35.1147H9.59404ZM12.8125 28.2814H28.1875V26.573H12.8125V28.2814ZM12.8125 22.3022H28.1875V20.5939H12.8125V22.3022ZM25.625 16.323H32.4584L25.625 9.48971V16.323ZM12.8125 16.323H20.5V14.6147H12.8125V16.323Z" fill="#E3E3E3"/>
</svg>
