<svg width="91" height="91" viewBox="0 0 91 91" fill="none" xmlns="http://www.w3.org/2000/svg">
<path d="M24.7212 72.5232L34.1018 68.6898C33.2752 66.2252 32.5687 63.7164 31.9823 61.1633C31.3984 58.6103 30.9724 56.0218 30.7045 53.398L25.7374 56.7195C25.3987 56.9647 25.1434 57.2453 24.9715 57.5612C24.7996 57.8772 24.7149 58.2286 24.7174 58.6153L24.7212 72.5232ZM37.9162 68.2499H53.0829C54.2204 65.1888 55.1367 61.8408 55.8319 58.2058C56.527 54.5709 56.8746 50.7855 56.8746 46.8498C56.8746 41.1269 56.0025 35.8577 54.2583 31.0423C52.5142 26.2269 49.5946 21.5758 45.4996 17.089C41.4046 21.5808 38.485 26.2332 36.7408 31.0461C34.9967 35.859 34.1246 41.1282 34.1246 46.8536C34.1246 50.7918 34.4721 54.5772 35.1673 58.2096C35.8624 61.842 36.7787 65.1888 37.9162 68.2499ZM45.4996 47.3958C43.8995 47.3958 42.5522 46.8472 41.4577 45.7502C40.3606 44.6557 39.8121 43.3084 39.8121 41.7083C39.8121 40.1082 40.3606 38.7609 41.4577 37.6664C42.5547 36.5718 43.902 36.0233 45.4996 36.0208C47.0971 36.0182 48.4444 36.5668 49.5415 37.6664C50.6385 38.7609 51.1871 40.1082 51.1871 41.7083C51.1871 43.3084 50.6385 44.6557 49.5415 45.7502C48.4444 46.8447 47.0971 47.3932 45.4996 47.3958ZM66.2779 72.5232V58.6911C66.2779 58.3019 66.1945 57.9379 66.0277 57.5991C65.8558 57.2579 65.5992 56.9647 65.2579 56.7195L60.2947 53.398C60.0267 56.0218 59.5388 58.8656 58.8311 61.9292C58.1233 64.9929 57.4787 67.2704 56.8973 68.7618L66.2779 72.5232ZM45.4996 12.084C50.7346 16.73 54.5705 21.9651 57.0073 27.7891C59.4466 33.6131 60.6662 40.1006 60.6662 47.2517C60.6662 47.5424 60.6789 47.8457 60.7042 48.1617C60.7294 48.4777 60.7168 48.8063 60.6662 49.1475L67.2448 53.58C68.1245 54.1285 68.8158 54.8616 69.3188 55.7791C69.8218 56.6967 70.0734 57.6674 70.0734 58.6911V78.0931L55.0015 72.0416H35.9256L20.9258 78.0931V58.6191C20.9258 57.5979 21.1659 56.6272 21.6462 55.7071C22.1239 54.7895 22.8027 54.0565 23.6823 53.5079L30.3329 49.0717V47.2517C30.3329 40.0981 31.5526 33.6105 33.9919 27.7891C36.4286 21.9651 40.2645 16.73 45.4996 12.084Z" fill="#E3E3E3"/>
</svg>
