<svg xmlns="http://www.w3.org/2000/svg" width="40" height="40" viewBox="0 0 40 41" fill="none">
  <path d="M32.9042 14.3389V34.2114C32.9046 34.4944 32.8492 34.7747 32.7411 35.0362C32.633 35.2977 32.4743 35.5353 32.2741 35.7353C32.074 35.9354 31.8364 36.0939 31.5748 36.202C31.3133 36.31 31.033 36.3653 30.75 36.3647H9.24916C8.96626 36.3652 8.68605 36.3098 8.4246 36.2017C8.16314 36.0937 7.92559 35.9351 7.72555 35.735C7.5255 35.535 7.36691 35.2974 7.25885 35.036C7.15079 34.7745 7.09539 34.4943 7.09583 34.2114V14.3397L32.9042 14.3389Z" stroke="#E3E3E3" stroke-width="2" stroke-linecap="round" stroke-linejoin="round" fill="none"/>
  <path d="M14.0808 14.2781V10.9147C14.0793 10.2075 14.2175 9.50686 14.4874 8.85313C14.7574 8.1994 15.1538 7.60542 15.6539 7.10531C16.154 6.60519 16.748 6.20878 17.4017 5.93883C18.0554 5.66887 18.7561 5.5307 19.4633 5.53224H20.5367C23.5183 5.53224 25.92 7.93224 25.92 10.9156V14.2789" stroke="#E3E3E3" stroke-width="2" stroke-linecap="round" stroke-linejoin="round" fill="none"/>
  <path d="M24.2592 27.3972H29.1142C29.7108 27.3972 30.1908 27.8372 30.1908 28.3839C30.1908 28.9305 29.71 29.3689 29.1142 29.3689H25.3358C24.7392 29.3689 24.2592 29.8089 24.2592 30.3555V31.3422H18.2117C17.615 31.3422 17.135 30.9022 17.135 30.3555C17.135 29.8089 17.615 29.3689 18.2117 29.3689H21.99C22.5858 29.3689 23.0667 28.9305 23.0667 28.3839C23.0667 27.8372 22.5858 27.3972 21.99 27.3972H17.74M16.5967 27.3964H9.98584M13.2917 27.4872V31.3422" stroke="#E3E3E3" stroke-linecap="round" stroke-linejoin="round" fill="none"/>
</svg>