<svg width="96" height="96" viewBox="0 0 96 96" fill="none" xmlns="http://www.w3.org/2000/svg">
<path d="M78 16.5H18C16.8065 16.5 15.6619 16.9741 14.818 17.818C13.9741 18.6619 13.5 19.8065 13.5 21V42C13.5 61.185 22.7738 72.795 30.5513 79.1625C38.9513 86.0325 47.2575 88.35 47.6062 88.4475C47.8641 88.5176 48.1359 88.5176 48.3938 88.4475C48.7425 88.35 57.0487 86.0325 65.4487 79.1625C73.2262 72.7875 82.5 61.185 82.5 42V21C82.5 19.8065 82.0259 18.6619 81.182 17.818C80.3381 16.9741 79.1935 16.5 78 16.5ZM79.5 42C79.5 56.415 74.1638 68.1113 63.6413 76.7663C58.9945 80.5771 53.6949 83.5134 48 85.4325C42.3041 83.5157 37.0041 80.5792 32.3587 76.7663C21.8363 68.1113 16.5 56.415 16.5 42V21C16.5 20.6022 16.658 20.2206 16.9393 19.9393C17.2206 19.658 17.6022 19.5 18 19.5H78C78.3978 19.5 78.7794 19.658 79.0607 19.9393C79.342 20.2206 79.5 20.6022 79.5 21V42ZM64.0612 37.9388C64.2007 38.0781 64.3114 38.2435 64.3868 38.4256C64.4623 38.6077 64.5012 38.8029 64.5012 39C64.5012 39.1971 64.4623 39.3923 64.3868 39.5744C64.3114 39.7565 64.2007 39.9219 64.0612 40.0613L43.0613 61.0613C42.9219 61.2007 42.7565 61.3114 42.5744 61.3868C42.3923 61.4623 42.1971 61.5012 42 61.5012C41.8029 61.5012 41.6077 61.4623 41.4256 61.3868C41.2435 61.3114 41.0781 61.2007 40.9387 61.0613L31.9387 52.0613C31.6573 51.7798 31.4992 51.398 31.4992 51C31.4992 50.602 31.6573 50.2202 31.9387 49.9388C32.2202 49.6573 32.602 49.4992 33 49.4992C33.398 49.4992 33.7798 49.6573 34.0613 49.9388L42 57.8775L61.9388 37.9388C62.0781 37.7993 62.2435 37.6886 62.4256 37.6132C62.6077 37.5377 62.8029 37.4988 63 37.4988C63.1971 37.4988 63.3923 37.5377 63.5744 37.6132C63.7565 37.6886 63.9219 37.7993 64.0612 37.9388Z" fill="#E3E3E3"/>
</svg>
