<svg width="77" height="77" viewBox="0 0 77 77" fill="none" xmlns="http://www.w3.org/2000/svg">
<path d="M38.4987 76.4168C33.2536 76.4168 28.3244 75.4209 23.7112 73.429C19.098 71.4371 15.0852 68.7362 11.6727 65.3262C8.26016 61.9162 5.55923 57.9034 3.56987 53.2877C1.58051 48.6719 0.584564 43.7428 0.582036 38.5002C0.579508 33.2576 1.57545 28.3284 3.56987 23.7127C5.56429 19.0969 8.26522 15.0841 11.6727 11.6741C15.0801 8.26415 19.093 5.56322 23.7112 3.57133C28.3295 1.57944 33.2586 0.583496 38.4987 0.583496C43.7388 0.583496 48.668 1.57944 53.2862 3.57133C57.9045 5.56322 61.9173 8.26415 65.3248 11.6741C68.7322 15.0841 71.4344 19.0969 73.4313 23.7127C75.4283 28.3284 76.423 33.2576 76.4154 38.5002C76.4078 43.7428 75.4118 48.6719 73.4275 53.2877C71.4432 57.9034 68.7423 61.9162 65.3248 65.3262C61.9072 68.7362 57.8943 71.4384 53.2862 73.4328C48.6781 75.4272 43.7489 76.4219 38.4987 76.4168ZM38.4987 68.8335C46.9668 68.8335 54.1393 65.895 60.0164 60.0179C65.8935 54.1408 68.832 46.9682 68.832 38.5002C68.832 30.0321 65.8935 22.8595 60.0164 16.9825C54.1393 11.1054 46.9668 8.16683 38.4987 8.16683C30.0306 8.16683 22.8581 11.1054 16.981 16.9825C11.1039 22.8595 8.16537 30.0321 8.16537 38.5002C8.16537 46.9682 11.1039 54.1408 16.981 60.0179C22.8581 65.895 30.0306 68.8335 38.4987 68.8335ZM38.4987 61.2502C32.1793 61.2502 26.8077 59.0384 22.3841 54.6147C17.9605 50.1911 15.7487 44.8196 15.7487 38.5002C15.7487 32.1807 17.9605 26.8092 22.3841 22.3856C26.8077 17.962 32.1793 15.7502 38.4987 15.7502C44.8181 15.7502 50.1897 17.962 54.6133 22.3856C59.0369 26.8092 61.2487 32.1807 61.2487 38.5002C61.2487 44.8196 59.0369 50.1911 54.6133 54.6147C50.1897 59.0384 44.8181 61.2502 38.4987 61.2502ZM38.4987 53.6668C42.6695 53.6668 46.24 52.1818 49.2102 49.2116C52.1803 46.2415 53.6654 42.671 53.6654 38.5002C53.6654 34.3293 52.1803 30.7588 49.2102 27.7887C46.24 24.8186 42.6695 23.3335 38.4987 23.3335C34.3279 23.3335 30.7574 24.8186 27.7872 27.7887C24.8171 30.7588 23.332 34.3293 23.332 38.5002C23.332 42.671 24.8171 46.2415 27.7872 49.2116C30.7574 52.1818 34.3279 53.6668 38.4987 53.6668ZM38.4987 46.0835C36.4133 46.0835 34.6287 45.3416 33.1449 43.8578C31.6611 42.374 30.9179 40.5881 30.9154 38.5002C30.9128 36.4122 31.656 34.6276 33.1449 33.1463C34.6337 31.6651 36.4183 30.9219 38.4987 30.9168C40.5791 30.9118 42.3649 31.6549 43.8563 33.1463C45.3477 34.6377 46.0896 36.4223 46.082 38.5002C46.0745 40.578 45.3326 42.3639 43.8563 43.8578C42.3801 45.3517 40.5942 46.0936 38.4987 46.0835Z" fill="url(#paint0_linear_391_977)"/>
<defs>
<linearGradient id="paint0_linear_391_977" x1="76.4154" y1="38.5002" x2="0.582031" y2="38.5002" gradientUnits="userSpaceOnUse">
<stop stop-color="#CFB013" stop-opacity="0.83"/>
<stop offset="0.0665077" stop-color="#B99B22" stop-opacity="0.851795"/>
<stop offset="0.254062" stop-color="#BA8C3A" stop-opacity="0.756193"/>
<stop offset="0.335393" stop-color="#BB7C55" stop-opacity="0.652721"/>
<stop offset="0.368726" stop-color="#BB775D" stop-opacity="0.621366"/>
</linearGradient>
</defs>
</svg>
