<svg width="81" height="81" viewBox="0 0 81 81" fill="none" xmlns="http://www.w3.org/2000/svg">
<path d="M74.6297 0.88936C77.7606 0.667548 80.3115 3.23261 80.3115 6.37495V49.0312C80.3115 52.1735 77.7407 54.6618 74.6609 55.2818C64.5571 57.3179 57.6752 66.2501 55.2808 74.6619C54.658 77.7389 52.1726 80.3125 49.0302 80.3125H6.37398C3.23163 80.3125 0.666571 77.7616 0.888384 74.6306C2.25902 55.5259 10.4655 37.5541 24.0052 24.0062C37.5532 10.4665 55.5249 2.26 74.6297 0.88936ZM43.4508 77.4687H49.0302C50.4919 77.4687 52.0673 76.1975 52.4911 74.0989L52.5138 73.9908L52.5423 73.8827C52.6503 73.5074 52.766 73.131 52.8892 72.7538C54.7348 66.0425 58.9748 60.3266 64.6339 56.5814C67.4705 54.5762 70.6936 53.1835 74.0979 52.492C76.1966 52.0683 77.4677 50.4929 77.4677 49.0312V43.4546C68.6736 44.1363 60.4129 47.9398 54.1774 54.1784C47.9294 60.4076 44.1233 68.6716 43.4508 77.4687ZM77.4677 34.9006V26.3551C64.1364 27.0506 51.5346 32.6566 42.0915 42.0925C32.6624 51.5402 27.0576 64.1393 26.3542 77.4687H34.8996C35.598 66.4083 40.3091 55.983 48.1487 48.1496C55.982 40.3101 66.4073 35.5989 77.4677 34.9006ZM77.4677 17.8154V9.27558C59.6091 9.98702 42.6737 17.3988 30.034 30.035C17.4096 42.6827 9.99988 59.6133 9.2746 77.4687H17.8144C18.5319 61.8769 25.0387 47.1132 36.0627 36.0637C47.1043 25.0282 61.8727 18.5193 77.4677 17.8154ZM52.8892 72.7566C54.7348 66.0454 58.9748 60.3294 64.6339 56.5814C58.8383 60.6337 54.8343 66.8132 52.8892 72.7538" fill="url(#paint0_linear_390_934)"/>
<defs>
<linearGradient id="paint0_linear_390_934" x1="80.3115" y1="40.5942" x2="0.875" y2="40.5942" gradientUnits="userSpaceOnUse">
<stop stop-color="#CFB013" stop-opacity="0.83"/>
<stop offset="0.0665077" stop-color="#B99B22" stop-opacity="0.851795"/>
<stop offset="0.254062" stop-color="#BA8C3A" stop-opacity="0.756193"/>
<stop offset="0.335393" stop-color="#BB7C55" stop-opacity="0.652721"/>
<stop offset="0.368726" stop-color="#BB775D" stop-opacity="0.621366"/>
</linearGradient>
</defs>
</svg>
