<svg width="32" height="32" viewBox="0 0 32 32" fill="none" xmlns="http://www.w3.org/2000/svg">
<path d="M25.3332 13.3333C26.394 13.3333 27.4115 13.7548 28.1616 14.5049C28.9117 15.255 29.3332 16.2725 29.3332 17.3333V21.3333C29.3332 22.3942 28.9117 23.4116 28.1616 24.1618C27.4115 24.9119 26.394 25.3333 25.3332 25.3333V26.6213C25.3332 28.0347 23.6852 28.8067 22.5998 27.9013L19.5172 25.3333H15.9998C14.939 25.3333 13.9216 24.9119 13.1714 24.1618C12.4213 23.4116 11.9998 22.3942 11.9998 21.3333V17.3333C11.9998 16.2725 12.4213 15.255 13.1714 14.5049C13.9216 13.7548 14.939 13.3333 15.9998 13.3333H25.3332ZM21.3332 5.33333C22.394 5.33333 23.4115 5.75476 24.1616 6.5049C24.9117 7.25505 25.3332 8.27246 25.3332 9.33333V10.6667H14.6665C13.252 10.6667 11.8955 11.2286 10.8953 12.2288C9.89507 13.229 9.33317 14.5855 9.33317 16V21.3333C9.33317 22.7253 9.8665 23.9947 10.7412 24.944L9.33317 26C8.2345 26.824 6.6665 26.04 6.6665 24.6667V22.6667C5.60564 22.6667 4.58822 22.2452 3.83808 21.4951C3.08793 20.7449 2.6665 19.7275 2.6665 18.6667V9.33333C2.6665 8.27246 3.08793 7.25505 3.83808 6.5049C4.58822 5.75476 5.60564 5.33333 6.6665 5.33333H21.3332Z" fill="white"/>
</svg>
