<svg width="36" height="36" viewBox="0 0 36 36" fill="none" xmlns="http://www.w3.org/2000/svg">
<path d="M16.5 7.5C16.5 6.70435 16.1839 5.94129 15.6213 5.37868C15.0587 4.81607 14.2956 4.5 13.5 4.5H7.5C6.70435 4.5 5.94129 4.81607 5.37868 5.37868C4.81607 5.94129 4.5 6.70435 4.5 7.5V13.5C4.5 14.2956 4.81607 15.0587 5.37868 15.6213C5.94129 16.1839 6.70435 16.5 7.5 16.5H13.5C14.2956 16.5 15.0587 16.1839 15.6213 15.6213C16.1839 15.0587 16.5 14.2956 16.5 13.5V7.5ZM31.5 7.5C31.5 6.70435 31.1839 5.94129 30.6213 5.37868C30.0587 4.81607 29.2956 4.5 28.5 4.5H22.5C21.7044 4.5 20.9413 4.81607 20.3787 5.37868C19.8161 5.94129 19.5 6.70435 19.5 7.5V13.5C19.5 14.2956 19.8161 15.0587 20.3787 15.6213C20.9413 16.1839 21.7044 16.5 22.5 16.5H28.5C29.2956 16.5 30.0587 16.1839 30.6213 15.6213C31.1839 15.0587 31.5 14.2956 31.5 13.5V7.5ZM13.5 19.5C14.2956 19.5 15.0587 19.8161 15.6213 20.3787C16.1839 20.9413 16.5 21.7044 16.5 22.5V28.5C16.5 29.2956 16.1839 30.0587 15.6213 30.6213C15.0587 31.1839 14.2956 31.5 13.5 31.5H7.5C6.70435 31.5 5.94129 31.1839 5.37868 30.6213C4.81607 30.0587 4.5 29.2956 4.5 28.5V22.5C4.5 21.7044 4.81607 20.9413 5.37868 20.3787C5.94129 19.8161 6.70435 19.5 7.5 19.5H13.5ZM19.5 25.5C19.5 25.1022 19.658 24.7206 19.9393 24.4393C20.2206 24.158 20.6022 24 21 24H24V21C24 20.6022 24.158 20.2206 24.4393 19.9393C24.7206 19.658 25.1022 19.5 25.5 19.5C25.8978 19.5 26.2794 19.658 26.5607 19.9393C26.842 20.2206 27 20.6022 27 21V24H30C30.3978 24 30.7794 24.158 31.0607 24.4393C31.342 24.7206 31.5 25.1022 31.5 25.5C31.5 25.8978 31.342 26.2794 31.0607 26.5607C30.7794 26.842 30.3978 27 30 27H27V30C27 30.3978 26.842 30.7794 26.5607 31.0607C26.2794 31.342 25.8978 31.5 25.5 31.5C25.1022 31.5 24.7206 31.342 24.4393 31.0607C24.158 30.7794 24 30.3978 24 30V27H21C20.6022 27 20.2206 26.842 19.9393 26.5607C19.658 26.2794 19.5 25.8978 19.5 25.5Z" fill="white"/>
</svg>
