<svg width="83" height="83" viewBox="0 0 83 83" fill="none" xmlns="http://www.w3.org/2000/svg">
<path d="M71.9677 5.6003C74.7856 5.40067 77.0813 7.70923 77.0813 10.5373V48.928C77.0813 51.7561 74.7677 53.9955 71.9959 54.5535C62.9024 56.386 56.7087 64.425 54.5537 71.9956C53.9932 74.7649 51.7563 77.0811 48.9282 77.0811H10.5376C7.70947 77.0811 5.40091 74.7853 5.60055 71.9675C6.83412 54.7732 14.22 38.5986 26.4057 26.4055C38.5989 14.2197 54.7734 6.83388 71.9677 5.6003ZM43.9067 74.5217H48.9282C50.2437 74.5217 51.6616 73.3777 52.043 71.4889L52.0634 71.3916L52.089 71.2943C52.1863 70.9565 52.2904 70.6178 52.4013 70.2783C54.0623 64.2381 57.8783 59.0938 62.9715 55.7231C65.5245 53.9184 68.4252 52.665 71.4891 52.0427C73.3779 51.6614 74.522 50.2435 74.522 48.928V43.909C66.6072 44.5225 59.1726 47.9457 53.5607 53.5604C47.9374 59.1667 44.512 66.6043 43.9067 74.5217ZM74.522 36.2104V28.5195C62.5238 29.1454 51.1821 34.1908 42.6833 42.6831C34.1972 51.1861 29.1529 62.5253 28.5198 74.5217H36.2107C36.8392 64.5673 41.0792 55.1846 48.1348 48.1346C55.1848 41.0789 64.5676 36.8389 74.522 36.2104ZM74.522 20.8337V13.1479C58.4492 13.7882 43.2073 20.4588 31.8316 31.8313C20.4696 43.2143 13.8009 58.4519 13.1481 74.5217H20.8339C21.4797 60.4891 27.3359 47.2017 37.2575 37.2572C47.1949 27.3252 60.4865 21.4673 74.522 20.8337ZM52.4013 70.2808C54.0623 64.2407 57.8783 59.0964 62.9715 55.7231C57.7555 59.3702 54.1519 64.9317 52.4013 70.2783" fill="url(#paint0_linear_161_654)"/>
<defs>
<linearGradient id="paint0_linear_161_654" x1="77.0813" y1="41.3347" x2="5.5885" y2="41.3347" gradientUnits="userSpaceOnUse">
<stop stop-color="#CFB013" stop-opacity="0.83"/>
<stop offset="0.0665077" stop-color="#B99B22" stop-opacity="0.851795"/>
<stop offset="0.254062" stop-color="#BA8C3A" stop-opacity="0.756193"/>
<stop offset="0.335393" stop-color="#BB7C55" stop-opacity="0.652721"/>
<stop offset="0.368726" stop-color="#BB775D" stop-opacity="0.621366"/>
</linearGradient>
</defs>
</svg>
