<svg width="32" height="32" viewBox="0 0 32 32" fill="none" xmlns="http://www.w3.org/2000/svg">
<path d="M20 10.6667H23.2067C23.988 10.6666 24.7598 10.8381 25.4675 11.1692C26.1751 11.5002 26.8015 11.9828 27.3021 12.5826C27.8027 13.1825 28.1654 13.885 28.3646 14.6405C28.5638 15.396 28.5945 16.186 28.4547 16.9547L27.2413 23.6213C27.0178 24.8497 26.3704 25.9608 25.4119 26.7609C24.4534 27.5611 23.2446 27.9996 21.996 28H10.6667V12L13.0947 4.28267C13.4893 3.36267 14.508 2.528 15.7933 2.776C17.832 3.16667 20 4.75467 20 7.33334V10.6667ZM8 12C6.93913 12 5.92172 12.4214 5.17157 13.1716C4.42143 13.9217 4 14.9391 4 16V24C4 25.0609 4.42143 26.0783 5.17157 26.8284C5.92172 27.5786 6.93913 28 8 28V12Z" fill="white"/>
</svg>
