<svg width="67" height="58" viewBox="0 0 67 58" fill="none" xmlns="http://www.w3.org/2000/svg">
<mask id="path-1-inside-1_161_689" fill="white">
<path d="M34.2492 0.633914C33.943 0.633368 33.6405 0.701512 33.3641 0.83333C33.0877 0.965147 32.8444 1.15728 32.6521 1.39558L32.2877 1.66585C25.2238 -0.520876 17.1648 1.08436 11.5547 6.48976C9.20473 8.71857 7.45658 11.5055 6.47284 14.5913C5.48911 17.6771 5.30174 20.9616 5.92817 24.1392L5.72342 24.3276L2.53341 27.3988C1.91633 27.9842 1.42491 28.6891 1.08909 29.4706C0.753266 30.2521 0.580078 31.0937 0.580078 31.9443C0.580078 32.7949 0.753266 33.6365 1.08909 34.418C1.42491 35.1994 1.91633 35.9043 2.53341 36.4897C4.16322 38.0622 6.42366 38.6519 8.5244 38.2588C8.78238 39.4422 9.38435 40.5684 10.3385 41.4856C11.5956 42.6978 13.2296 43.3243 14.8757 43.3693C14.9208 44.9541 15.5719 46.5266 16.8291 47.7387C18.0862 48.9508 19.7242 49.5815 21.3704 49.6224C21.4114 51.2072 22.0666 52.7837 23.3237 53.9959C24.5273 55.1381 26.1039 55.8056 27.7617 55.8748C29.4195 55.9441 31.0463 55.4104 32.3409 54.3726L34.1304 56.0925C36.7512 58.6191 41.0018 58.6191 43.6226 56.0925C44.8757 54.8886 45.5268 53.3243 45.5841 51.7436C47.2221 51.6945 48.8397 51.0679 50.0886 49.864C51.3376 48.6601 51.9928 47.0917 52.042 45.511C53.7058 45.4508 55.2897 44.7819 56.4932 43.6314C57.4883 42.6773 58.1026 41.4938 58.3401 40.2571C59.3941 40.4416 60.4768 40.3762 61.5009 40.0661C62.5251 39.756 63.4622 39.2099 64.2369 38.4717C64.8546 37.8863 65.3466 37.1811 65.6828 36.3993C66.019 35.6174 66.1924 34.7753 66.1924 33.9242C66.1924 33.0732 66.019 32.231 65.6828 31.4492C65.3466 30.6673 64.8546 29.9622 64.2369 29.3767L61.2885 26.5389L61.8904 24.2866C63.1038 19.6818 62.4874 14.7861 60.1705 10.6257C56.7471 4.45864 50.105 0.650294 42.9224 0.650294H37.8855L37.2344 0.633914H34.2492ZM44.2942 15.8509L54.1427 25.3391L54.155 25.3472L61.2844 32.2187C61.516 32.4383 61.7004 32.7028 61.8265 32.996C61.9525 33.2892 62.0175 33.6051 62.0175 33.9242C62.0175 34.2434 61.9525 34.5592 61.8265 34.8524C61.7004 35.1457 61.516 35.4102 61.2844 35.6298C60.8055 36.0819 60.1719 36.3338 59.5133 36.3338C58.8547 36.3338 58.2211 36.0819 57.7422 35.6298L52.3327 30.4209C51.9362 30.0405 51.408 29.8281 50.8585 29.8281C50.309 29.8281 49.7808 30.0405 49.3843 30.4209L49.327 30.4701C49.135 30.6536 48.9821 30.8741 48.8777 31.1184C48.7733 31.3626 48.7195 31.6254 48.7195 31.8911C48.7195 32.1567 48.7733 32.4195 48.8777 32.6637C48.9821 32.908 49.135 33.1285 49.327 33.312L53.5448 37.3743C54.5276 38.3161 54.5276 39.8476 53.5448 40.7936C53.1099 41.2057 52.5451 41.4536 51.9473 41.4947C51.3495 41.5358 50.7561 41.3675 50.2688 41.0188C49.8622 40.725 49.3655 40.583 48.865 40.6174C48.3645 40.6518 47.8919 40.8605 47.5293 41.2072C47.1749 41.546 46.9609 42.0057 46.9298 42.495C46.8987 42.9844 47.0528 43.4675 47.3614 43.8484C47.729 44.3089 47.9103 44.8906 47.8693 45.4784C47.8283 46.0661 47.5682 46.6171 47.1403 47.0221C46.6991 47.4404 46.1245 47.6895 45.5176 47.7255C44.9108 47.7614 44.3107 47.5819 43.8233 47.2186C43.4187 46.9151 42.9199 46.7643 42.4149 46.7928C41.9099 46.8212 41.4312 47.0272 41.0633 47.3742C40.7043 47.7126 40.4866 48.1742 40.4539 48.6664C40.4212 49.1587 40.576 49.645 40.8872 50.0278C41.2652 50.4936 41.453 51.0853 41.4127 51.6839C41.3725 52.2825 41.1072 52.8437 40.6702 53.2547C40.1855 53.7147 39.5427 53.9711 38.8745 53.9711C38.2063 53.9711 37.5635 53.7147 37.0788 53.2547L35.3057 51.5471L35.9527 50.9246C36.5704 50.3392 37.0624 49.634 37.3986 48.8522C37.7348 48.0703 37.9082 47.2282 37.9082 46.3771C37.9082 45.526 37.7348 44.6839 37.3986 43.9021C37.0624 43.1202 36.5704 42.4151 35.9527 41.8296C34.728 40.658 33.1098 39.9862 31.4154 39.9459C31.3649 38.2879 30.6631 36.7167 29.4621 35.5725C28.2358 34.4014 26.616 33.731 24.9208 33.6929C24.8702 32.0349 24.1684 30.4636 22.9675 29.3194C22.1808 28.5706 21.227 28.02 20.1852 27.7131C19.1434 27.4061 18.0435 27.3518 16.9765 27.5544C16.7058 26.3225 16.0743 25.1991 15.1624 24.3276C14.4635 23.6592 13.63 23.1476 12.7177 22.827C11.8053 22.5064 10.835 22.3842 9.87165 22.4685C9.54971 20.0689 9.80124 17.6272 10.6056 15.3436C11.41 13.0601 12.7443 10.9998 14.499 9.33169C16.2725 7.6369 18.3992 6.35558 20.7263 5.57963C23.0535 4.80367 25.5235 4.55231 27.9593 4.84357L22.001 9.22522C21.2387 9.77916 20.5965 10.4818 20.1133 11.2909C19.6301 12.0999 19.3158 12.9984 19.1895 13.9323C19.0632 14.8661 19.1275 15.8158 19.3785 16.7242C19.6294 17.6325 20.0619 18.4805 20.6497 19.217C21.8391 20.7067 23.5567 21.6809 25.4457 21.9372C27.3347 22.1934 29.2497 21.712 30.793 20.5929L37.2467 15.855L44.2942 15.8509ZM24.4253 12.5217L35.0395 4.72891H37.2344C37.4352 4.72699 37.636 4.73246 37.8364 4.74529H42.9224C48.6718 4.74529 53.9175 7.79607 56.5915 12.6159C58.4015 15.8755 58.8765 19.6634 57.9306 23.2383L57.9183 23.2793L46.6161 12.3579C46.233 11.9736 45.7131 11.7571 45.1706 11.7559H36.5711C36.1364 11.7568 35.7133 11.8959 35.363 12.1531L28.3688 17.2883C27.6814 17.7793 26.8326 17.9895 25.9956 17.8761C25.1585 17.7627 24.3962 17.3343 23.8643 16.6781C23.6166 16.3731 23.4341 16.0206 23.3278 15.6423C23.2215 15.264 23.1938 14.868 23.2464 14.4787C23.2989 14.0893 23.4306 13.7148 23.6334 13.3782C23.8361 13.0417 24.1056 12.7502 24.4253 12.5217ZM26.2353 47.7797L26.2762 47.7387L29.4621 44.6675L29.499 44.6347C29.9805 44.1982 30.609 43.9595 31.2589 43.9663C31.9087 43.9731 32.5321 44.225 33.0043 44.6715C33.2359 44.8912 33.4203 45.1557 33.5464 45.4489C33.6724 45.7421 33.7374 46.0579 33.7374 46.3771C33.7374 46.6963 33.6724 47.0121 33.5464 47.3053C33.4203 47.5986 33.2359 47.8631 33.0043 48.0827L29.8143 51.1539C29.3354 51.6061 28.7018 51.8579 28.0432 51.8579C27.3846 51.8579 26.751 51.6061 26.2721 51.1539C26.0436 50.9376 25.8608 50.6775 25.7346 50.3892C25.6085 50.1009 25.5415 49.7902 25.5377 49.4755C25.5339 49.1608 25.5933 48.8485 25.7124 48.5572C25.8315 48.2659 26.012 48.0015 26.2353 47.7797ZM26.5465 41.7928L26.5055 41.8296L23.3196 44.9009L23.2787 44.9377C22.7969 45.3725 22.169 45.6098 21.5201 45.6022C20.8711 45.5946 20.2489 45.3427 19.7775 44.8968C19.5485 44.6795 19.3656 44.4183 19.2397 44.1287C19.1139 43.8392 19.0476 43.5273 19.045 43.2116C19.0423 42.8959 19.1032 42.583 19.2241 42.2913C19.3451 41.9997 19.5235 41.7355 19.7488 41.5143L19.7775 41.4856L22.9634 38.4144L22.992 38.3857C23.473 37.9458 24.1026 37.7042 24.7544 37.7095C25.4062 37.7148 26.0318 37.9666 26.5055 38.4144C26.7347 38.6308 26.918 38.8911 27.0446 39.1798C27.1711 39.4685 27.2383 39.7797 27.2421 40.0949C27.2459 40.4101 27.1863 40.7228 27.0668 41.0145C26.9473 41.3062 26.7704 41.5709 26.5465 41.7928ZM20.015 35.5725L16.825 38.6437L16.7963 38.6724C16.3154 39.1123 15.6857 39.3539 15.0339 39.3486C14.3821 39.3433 13.7565 39.0915 13.2828 38.6437C13.0512 38.4241 12.8668 38.1596 12.7407 37.8664C12.6147 37.5731 12.5497 37.2573 12.5497 36.9381C12.5497 36.619 12.6147 36.3031 12.7407 36.0099C12.8668 35.7167 13.0512 35.4522 13.2828 35.2326L16.4687 32.1613C16.9478 31.708 17.5823 31.4554 18.2418 31.4554C18.9014 31.4554 19.5359 31.708 20.015 32.1613C20.2446 32.3787 20.428 32.6401 20.5542 32.93C20.6805 33.2199 20.7469 33.5323 20.7496 33.8485C20.7523 34.1647 20.6911 34.4782 20.5698 34.7702C20.4485 35.0622 20.2696 35.3267 20.0436 35.5479L20.015 35.5725ZM12.2099 30.5807L9.02399 33.6519C8.54491 34.1052 7.9104 34.3578 7.25085 34.3578C6.5913 34.3578 5.9568 34.1052 5.47772 33.6519C5.24548 33.4322 5.06049 33.1675 4.93407 32.8739C4.80764 32.5803 4.74244 32.264 4.74244 31.9443C4.74244 31.6246 4.80764 31.3083 4.93407 31.0147C5.06049 30.7211 5.24548 30.4563 5.47772 30.2367L8.66772 27.1654C9.14659 26.7133 9.78023 26.4614 10.4388 26.4614C11.0974 26.4614 11.731 26.7133 12.2099 27.1654C12.4421 27.3851 12.6271 27.6498 12.7535 27.9434C12.88 28.2371 12.9452 28.5534 12.9452 28.873C12.9452 29.1927 12.88 29.509 12.7535 29.8026C12.6271 30.0962 12.4421 30.361 12.2099 30.5807Z"/>
</mask>
<path d="M34.2492 0.633914C33.943 0.633368 33.6405 0.701512 33.3641 0.83333C33.0877 0.965147 32.8444 1.15728 32.6521 1.39558L32.2877 1.66585C25.2238 -0.520876 17.1648 1.08436 11.5547 6.48976C9.20473 8.71857 7.45658 11.5055 6.47284 14.5913C5.48911 17.6771 5.30174 20.9616 5.92817 24.1392L5.72342 24.3276L2.53341 27.3988C1.91633 27.9842 1.42491 28.6891 1.08909 29.4706C0.753266 30.2521 0.580078 31.0937 0.580078 31.9443C0.580078 32.7949 0.753266 33.6365 1.08909 34.418C1.42491 35.1994 1.91633 35.9043 2.53341 36.4897C4.16322 38.0622 6.42366 38.6519 8.5244 38.2588C8.78238 39.4422 9.38435 40.5684 10.3385 41.4856C11.5956 42.6978 13.2296 43.3243 14.8757 43.3693C14.9208 44.9541 15.5719 46.5266 16.8291 47.7387C18.0862 48.9508 19.7242 49.5815 21.3704 49.6224C21.4114 51.2072 22.0666 52.7837 23.3237 53.9959C24.5273 55.1381 26.1039 55.8056 27.7617 55.8748C29.4195 55.9441 31.0463 55.4104 32.3409 54.3726L34.1304 56.0925C36.7512 58.6191 41.0018 58.6191 43.6226 56.0925C44.8757 54.8886 45.5268 53.3243 45.5841 51.7436C47.2221 51.6945 48.8397 51.0679 50.0886 49.864C51.3376 48.6601 51.9928 47.0917 52.042 45.511C53.7058 45.4508 55.2897 44.7819 56.4932 43.6314C57.4883 42.6773 58.1026 41.4938 58.3401 40.2571C59.3941 40.4416 60.4768 40.3762 61.5009 40.0661C62.5251 39.756 63.4622 39.2099 64.2369 38.4717C64.8546 37.8863 65.3466 37.1811 65.6828 36.3993C66.019 35.6174 66.1924 34.7753 66.1924 33.9242C66.1924 33.0732 66.019 32.231 65.6828 31.4492C65.3466 30.6673 64.8546 29.9622 64.2369 29.3767L61.2885 26.5389L61.8904 24.2866C63.1038 19.6818 62.4874 14.7861 60.1705 10.6257C56.7471 4.45864 50.105 0.650294 42.9224 0.650294H37.8855L37.2344 0.633914H34.2492ZM44.2942 15.8509L54.1427 25.3391L54.155 25.3472L61.2844 32.2187C61.516 32.4383 61.7004 32.7028 61.8265 32.996C61.9525 33.2892 62.0175 33.6051 62.0175 33.9242C62.0175 34.2434 61.9525 34.5592 61.8265 34.8524C61.7004 35.1457 61.516 35.4102 61.2844 35.6298C60.8055 36.0819 60.1719 36.3338 59.5133 36.3338C58.8547 36.3338 58.2211 36.0819 57.7422 35.6298L52.3327 30.4209C51.9362 30.0405 51.408 29.8281 50.8585 29.8281C50.309 29.8281 49.7808 30.0405 49.3843 30.4209L49.327 30.4701C49.135 30.6536 48.9821 30.8741 48.8777 31.1184C48.7733 31.3626 48.7195 31.6254 48.7195 31.8911C48.7195 32.1567 48.7733 32.4195 48.8777 32.6637C48.9821 32.908 49.135 33.1285 49.327 33.312L53.5448 37.3743C54.5276 38.3161 54.5276 39.8476 53.5448 40.7936C53.1099 41.2057 52.5451 41.4536 51.9473 41.4947C51.3495 41.5358 50.7561 41.3675 50.2688 41.0188C49.8622 40.725 49.3655 40.583 48.865 40.6174C48.3645 40.6518 47.8919 40.8605 47.5293 41.2072C47.1749 41.546 46.9609 42.0057 46.9298 42.495C46.8987 42.9844 47.0528 43.4675 47.3614 43.8484C47.729 44.3089 47.9103 44.8906 47.8693 45.4784C47.8283 46.0661 47.5682 46.6171 47.1403 47.0221C46.6991 47.4404 46.1245 47.6895 45.5176 47.7255C44.9108 47.7614 44.3107 47.5819 43.8233 47.2186C43.4187 46.9151 42.9199 46.7643 42.4149 46.7928C41.9099 46.8212 41.4312 47.0272 41.0633 47.3742C40.7043 47.7126 40.4866 48.1742 40.4539 48.6664C40.4212 49.1587 40.576 49.645 40.8872 50.0278C41.2652 50.4936 41.453 51.0853 41.4127 51.6839C41.3725 52.2825 41.1072 52.8437 40.6702 53.2547C40.1855 53.7147 39.5427 53.9711 38.8745 53.9711C38.2063 53.9711 37.5635 53.7147 37.0788 53.2547L35.3057 51.5471L35.9527 50.9246C36.5704 50.3392 37.0624 49.634 37.3986 48.8522C37.7348 48.0703 37.9082 47.2282 37.9082 46.3771C37.9082 45.526 37.7348 44.6839 37.3986 43.9021C37.0624 43.1202 36.5704 42.4151 35.9527 41.8296C34.728 40.658 33.1098 39.9862 31.4154 39.9459C31.3649 38.2879 30.6631 36.7167 29.4621 35.5725C28.2358 34.4014 26.616 33.731 24.9208 33.6929C24.8702 32.0349 24.1684 30.4636 22.9675 29.3194C22.1808 28.5706 21.227 28.02 20.1852 27.7131C19.1434 27.4061 18.0435 27.3518 16.9765 27.5544C16.7058 26.3225 16.0743 25.1991 15.1624 24.3276C14.4635 23.6592 13.63 23.1476 12.7177 22.827C11.8053 22.5064 10.835 22.3842 9.87165 22.4685C9.54971 20.0689 9.80124 17.6272 10.6056 15.3436C11.41 13.0601 12.7443 10.9998 14.499 9.33169C16.2725 7.6369 18.3992 6.35558 20.7263 5.57963C23.0535 4.80367 25.5235 4.55231 27.9593 4.84357L22.001 9.22522C21.2387 9.77916 20.5965 10.4818 20.1133 11.2909C19.6301 12.0999 19.3158 12.9984 19.1895 13.9323C19.0632 14.8661 19.1275 15.8158 19.3785 16.7242C19.6294 17.6325 20.0619 18.4805 20.6497 19.217C21.8391 20.7067 23.5567 21.6809 25.4457 21.9372C27.3347 22.1934 29.2497 21.712 30.793 20.5929L37.2467 15.855L44.2942 15.8509ZM24.4253 12.5217L35.0395 4.72891H37.2344C37.4352 4.72699 37.636 4.73246 37.8364 4.74529H42.9224C48.6718 4.74529 53.9175 7.79607 56.5915 12.6159C58.4015 15.8755 58.8765 19.6634 57.9306 23.2383L57.9183 23.2793L46.6161 12.3579C46.233 11.9736 45.7131 11.7571 45.1706 11.7559H36.5711C36.1364 11.7568 35.7133 11.8959 35.363 12.1531L28.3688 17.2883C27.6814 17.7793 26.8326 17.9895 25.9956 17.8761C25.1585 17.7627 24.3962 17.3343 23.8643 16.6781C23.6166 16.3731 23.4341 16.0206 23.3278 15.6423C23.2215 15.264 23.1938 14.868 23.2464 14.4787C23.2989 14.0893 23.4306 13.7148 23.6334 13.3782C23.8361 13.0417 24.1056 12.7502 24.4253 12.5217ZM26.2353 47.7797L26.2762 47.7387L29.4621 44.6675L29.499 44.6347C29.9805 44.1982 30.609 43.9595 31.2589 43.9663C31.9087 43.9731 32.5321 44.225 33.0043 44.6715C33.2359 44.8912 33.4203 45.1557 33.5464 45.4489C33.6724 45.7421 33.7374 46.0579 33.7374 46.3771C33.7374 46.6963 33.6724 47.0121 33.5464 47.3053C33.4203 47.5986 33.2359 47.8631 33.0043 48.0827L29.8143 51.1539C29.3354 51.6061 28.7018 51.8579 28.0432 51.8579C27.3846 51.8579 26.751 51.6061 26.2721 51.1539C26.0436 50.9376 25.8608 50.6775 25.7346 50.3892C25.6085 50.1009 25.5415 49.7902 25.5377 49.4755C25.5339 49.1608 25.5933 48.8485 25.7124 48.5572C25.8315 48.2659 26.012 48.0015 26.2353 47.7797ZM26.5465 41.7928L26.5055 41.8296L23.3196 44.9009L23.2787 44.9377C22.7969 45.3725 22.169 45.6098 21.5201 45.6022C20.8711 45.5946 20.2489 45.3427 19.7775 44.8968C19.5485 44.6795 19.3656 44.4183 19.2397 44.1287C19.1139 43.8392 19.0476 43.5273 19.045 43.2116C19.0423 42.8959 19.1032 42.583 19.2241 42.2913C19.3451 41.9997 19.5235 41.7355 19.7488 41.5143L19.7775 41.4856L22.9634 38.4144L22.992 38.3857C23.473 37.9458 24.1026 37.7042 24.7544 37.7095C25.4062 37.7148 26.0318 37.9666 26.5055 38.4144C26.7347 38.6308 26.918 38.8911 27.0446 39.1798C27.1711 39.4685 27.2383 39.7797 27.2421 40.0949C27.2459 40.4101 27.1863 40.7228 27.0668 41.0145C26.9473 41.3062 26.7704 41.5709 26.5465 41.7928ZM20.015 35.5725L16.825 38.6437L16.7963 38.6724C16.3154 39.1123 15.6857 39.3539 15.0339 39.3486C14.3821 39.3433 13.7565 39.0915 13.2828 38.6437C13.0512 38.4241 12.8668 38.1596 12.7407 37.8664C12.6147 37.5731 12.5497 37.2573 12.5497 36.9381C12.5497 36.619 12.6147 36.3031 12.7407 36.0099C12.8668 35.7167 13.0512 35.4522 13.2828 35.2326L16.4687 32.1613C16.9478 31.708 17.5823 31.4554 18.2418 31.4554C18.9014 31.4554 19.5359 31.708 20.015 32.1613C20.2446 32.3787 20.428 32.6401 20.5542 32.93C20.6805 33.2199 20.7469 33.5323 20.7496 33.8485C20.7523 34.1647 20.6911 34.4782 20.5698 34.7702C20.4485 35.0622 20.2696 35.3267 20.0436 35.5479L20.015 35.5725ZM12.2099 30.5807L9.02399 33.6519C8.54491 34.1052 7.9104 34.3578 7.25085 34.3578C6.5913 34.3578 5.9568 34.1052 5.47772 33.6519C5.24548 33.4322 5.06049 33.1675 4.93407 32.8739C4.80764 32.5803 4.74244 32.264 4.74244 31.9443C4.74244 31.6246 4.80764 31.3083 4.93407 31.0147C5.06049 30.7211 5.24548 30.4563 5.47772 30.2367L8.66772 27.1654C9.14659 26.7133 9.78023 26.4614 10.4388 26.4614C11.0974 26.4614 11.731 26.7133 12.2099 27.1654C12.4421 27.3851 12.6271 27.6498 12.7535 27.9434C12.88 28.2371 12.9452 28.5534 12.9452 28.873C12.9452 29.1927 12.88 29.509 12.7535 29.8026C12.6271 30.0962 12.4421 30.361 12.2099 30.5807Z" fill="url(#paint0_linear_161_689)"/>
<path d="M34.2492 0.633914C33.943 0.633368 33.6405 0.701512 33.3641 0.83333C33.0877 0.965147 32.8444 1.15728 32.6521 1.39558L32.2877 1.66585C25.2238 -0.520876 17.1648 1.08436 11.5547 6.48976C9.20473 8.71857 7.45658 11.5055 6.47284 14.5913C5.48911 17.6771 5.30174 20.9616 5.92817 24.1392L5.72342 24.3276L2.53341 27.3988C1.91633 27.9842 1.42491 28.6891 1.08909 29.4706C0.753266 30.2521 0.580078 31.0937 0.580078 31.9443C0.580078 32.7949 0.753266 33.6365 1.08909 34.418C1.42491 35.1994 1.91633 35.9043 2.53341 36.4897C4.16322 38.0622 6.42366 38.6519 8.5244 38.2588C8.78238 39.4422 9.38435 40.5684 10.3385 41.4856C11.5956 42.6978 13.2296 43.3243 14.8757 43.3693C14.9208 44.9541 15.5719 46.5266 16.8291 47.7387C18.0862 48.9508 19.7242 49.5815 21.3704 49.6224C21.4114 51.2072 22.0666 52.7837 23.3237 53.9959C24.5273 55.1381 26.1039 55.8056 27.7617 55.8748C29.4195 55.9441 31.0463 55.4104 32.3409 54.3726L34.1304 56.0925C36.7512 58.6191 41.0018 58.6191 43.6226 56.0925C44.8757 54.8886 45.5268 53.3243 45.5841 51.7436C47.2221 51.6945 48.8397 51.0679 50.0886 49.864C51.3376 48.6601 51.9928 47.0917 52.042 45.511C53.7058 45.4508 55.2897 44.7819 56.4932 43.6314C57.4883 42.6773 58.1026 41.4938 58.3401 40.2571C59.3941 40.4416 60.4768 40.3762 61.5009 40.0661C62.5251 39.756 63.4622 39.2099 64.2369 38.4717C64.8546 37.8863 65.3466 37.1811 65.6828 36.3993C66.019 35.6174 66.1924 34.7753 66.1924 33.9242C66.1924 33.0732 66.019 32.231 65.6828 31.4492C65.3466 30.6673 64.8546 29.9622 64.2369 29.3767L61.2885 26.5389L61.8904 24.2866C63.1038 19.6818 62.4874 14.7861 60.1705 10.6257C56.7471 4.45864 50.105 0.650294 42.9224 0.650294H37.8855L37.2344 0.633914H34.2492ZM44.2942 15.8509L54.1427 25.3391L54.155 25.3472L61.2844 32.2187C61.516 32.4383 61.7004 32.7028 61.8265 32.996C61.9525 33.2892 62.0175 33.6051 62.0175 33.9242C62.0175 34.2434 61.9525 34.5592 61.8265 34.8524C61.7004 35.1457 61.516 35.4102 61.2844 35.6298C60.8055 36.0819 60.1719 36.3338 59.5133 36.3338C58.8547 36.3338 58.2211 36.0819 57.7422 35.6298L52.3327 30.4209C51.9362 30.0405 51.408 29.8281 50.8585 29.8281C50.309 29.8281 49.7808 30.0405 49.3843 30.4209L49.327 30.4701C49.135 30.6536 48.9821 30.8741 48.8777 31.1184C48.7733 31.3626 48.7195 31.6254 48.7195 31.8911C48.7195 32.1567 48.7733 32.4195 48.8777 32.6637C48.9821 32.908 49.135 33.1285 49.327 33.312L53.5448 37.3743C54.5276 38.3161 54.5276 39.8476 53.5448 40.7936C53.1099 41.2057 52.5451 41.4536 51.9473 41.4947C51.3495 41.5358 50.7561 41.3675 50.2688 41.0188C49.8622 40.725 49.3655 40.583 48.865 40.6174C48.3645 40.6518 47.8919 40.8605 47.5293 41.2072C47.1749 41.546 46.9609 42.0057 46.9298 42.495C46.8987 42.9844 47.0528 43.4675 47.3614 43.8484C47.729 44.3089 47.9103 44.8906 47.8693 45.4784C47.8283 46.0661 47.5682 46.6171 47.1403 47.0221C46.6991 47.4404 46.1245 47.6895 45.5176 47.7255C44.9108 47.7614 44.3107 47.5819 43.8233 47.2186C43.4187 46.9151 42.9199 46.7643 42.4149 46.7928C41.9099 46.8212 41.4312 47.0272 41.0633 47.3742C40.7043 47.7126 40.4866 48.1742 40.4539 48.6664C40.4212 49.1587 40.576 49.645 40.8872 50.0278C41.2652 50.4936 41.453 51.0853 41.4127 51.6839C41.3725 52.2825 41.1072 52.8437 40.6702 53.2547C40.1855 53.7147 39.5427 53.9711 38.8745 53.9711C38.2063 53.9711 37.5635 53.7147 37.0788 53.2547L35.3057 51.5471L35.9527 50.9246C36.5704 50.3392 37.0624 49.634 37.3986 48.8522C37.7348 48.0703 37.9082 47.2282 37.9082 46.3771C37.9082 45.526 37.7348 44.6839 37.3986 43.9021C37.0624 43.1202 36.5704 42.4151 35.9527 41.8296C34.728 40.658 33.1098 39.9862 31.4154 39.9459C31.3649 38.2879 30.6631 36.7167 29.4621 35.5725C28.2358 34.4014 26.616 33.731 24.9208 33.6929C24.8702 32.0349 24.1684 30.4636 22.9675 29.3194C22.1808 28.5706 21.227 28.02 20.1852 27.7131C19.1434 27.4061 18.0435 27.3518 16.9765 27.5544C16.7058 26.3225 16.0743 25.1991 15.1624 24.3276C14.4635 23.6592 13.63 23.1476 12.7177 22.827C11.8053 22.5064 10.835 22.3842 9.87165 22.4685C9.54971 20.0689 9.80124 17.6272 10.6056 15.3436C11.41 13.0601 12.7443 10.9998 14.499 9.33169C16.2725 7.6369 18.3992 6.35558 20.7263 5.57963C23.0535 4.80367 25.5235 4.55231 27.9593 4.84357L22.001 9.22522C21.2387 9.77916 20.5965 10.4818 20.1133 11.2909C19.6301 12.0999 19.3158 12.9984 19.1895 13.9323C19.0632 14.8661 19.1275 15.8158 19.3785 16.7242C19.6294 17.6325 20.0619 18.4805 20.6497 19.217C21.8391 20.7067 23.5567 21.6809 25.4457 21.9372C27.3347 22.1934 29.2497 21.712 30.793 20.5929L37.2467 15.855L44.2942 15.8509ZM24.4253 12.5217L35.0395 4.72891H37.2344C37.4352 4.72699 37.636 4.73246 37.8364 4.74529H42.9224C48.6718 4.74529 53.9175 7.79607 56.5915 12.6159C58.4015 15.8755 58.8765 19.6634 57.9306 23.2383L57.9183 23.2793L46.6161 12.3579C46.233 11.9736 45.7131 11.7571 45.1706 11.7559H36.5711C36.1364 11.7568 35.7133 11.8959 35.363 12.1531L28.3688 17.2883C27.6814 17.7793 26.8326 17.9895 25.9956 17.8761C25.1585 17.7627 24.3962 17.3343 23.8643 16.6781C23.6166 16.3731 23.4341 16.0206 23.3278 15.6423C23.2215 15.264 23.1938 14.868 23.2464 14.4787C23.2989 14.0893 23.4306 13.7148 23.6334 13.3782C23.8361 13.0417 24.1056 12.7502 24.4253 12.5217ZM26.2353 47.7797L26.2762 47.7387L29.4621 44.6675L29.499 44.6347C29.9805 44.1982 30.609 43.9595 31.2589 43.9663C31.9087 43.9731 32.5321 44.225 33.0043 44.6715C33.2359 44.8912 33.4203 45.1557 33.5464 45.4489C33.6724 45.7421 33.7374 46.0579 33.7374 46.3771C33.7374 46.6963 33.6724 47.0121 33.5464 47.3053C33.4203 47.5986 33.2359 47.8631 33.0043 48.0827L29.8143 51.1539C29.3354 51.6061 28.7018 51.8579 28.0432 51.8579C27.3846 51.8579 26.751 51.6061 26.2721 51.1539C26.0436 50.9376 25.8608 50.6775 25.7346 50.3892C25.6085 50.1009 25.5415 49.7902 25.5377 49.4755C25.5339 49.1608 25.5933 48.8485 25.7124 48.5572C25.8315 48.2659 26.012 48.0015 26.2353 47.7797ZM26.5465 41.7928L26.5055 41.8296L23.3196 44.9009L23.2787 44.9377C22.7969 45.3725 22.169 45.6098 21.5201 45.6022C20.8711 45.5946 20.2489 45.3427 19.7775 44.8968C19.5485 44.6795 19.3656 44.4183 19.2397 44.1287C19.1139 43.8392 19.0476 43.5273 19.045 43.2116C19.0423 42.8959 19.1032 42.583 19.2241 42.2913C19.3451 41.9997 19.5235 41.7355 19.7488 41.5143L19.7775 41.4856L22.9634 38.4144L22.992 38.3857C23.473 37.9458 24.1026 37.7042 24.7544 37.7095C25.4062 37.7148 26.0318 37.9666 26.5055 38.4144C26.7347 38.6308 26.918 38.8911 27.0446 39.1798C27.1711 39.4685 27.2383 39.7797 27.2421 40.0949C27.2459 40.4101 27.1863 40.7228 27.0668 41.0145C26.9473 41.3062 26.7704 41.5709 26.5465 41.7928ZM20.015 35.5725L16.825 38.6437L16.7963 38.6724C16.3154 39.1123 15.6857 39.3539 15.0339 39.3486C14.3821 39.3433 13.7565 39.0915 13.2828 38.6437C13.0512 38.4241 12.8668 38.1596 12.7407 37.8664C12.6147 37.5731 12.5497 37.2573 12.5497 36.9381C12.5497 36.619 12.6147 36.3031 12.7407 36.0099C12.8668 35.7167 13.0512 35.4522 13.2828 35.2326L16.4687 32.1613C16.9478 31.708 17.5823 31.4554 18.2418 31.4554C18.9014 31.4554 19.5359 31.708 20.015 32.1613C20.2446 32.3787 20.428 32.6401 20.5542 32.93C20.6805 33.2199 20.7469 33.5323 20.7496 33.8485C20.7523 34.1647 20.6911 34.4782 20.5698 34.7702C20.4485 35.0622 20.2696 35.3267 20.0436 35.5479L20.015 35.5725ZM12.2099 30.5807L9.02399 33.6519C8.54491 34.1052 7.9104 34.3578 7.25085 34.3578C6.5913 34.3578 5.9568 34.1052 5.47772 33.6519C5.24548 33.4322 5.06049 33.1675 4.93407 32.8739C4.80764 32.5803 4.74244 32.264 4.74244 31.9443C4.74244 31.6246 4.80764 31.3083 4.93407 31.0147C5.06049 30.7211 5.24548 30.4563 5.47772 30.2367L8.66772 27.1654C9.14659 26.7133 9.78023 26.4614 10.4388 26.4614C11.0974 26.4614 11.731 26.7133 12.2099 27.1654C12.4421 27.3851 12.6271 27.6498 12.7535 27.9434C12.88 28.2371 12.9452 28.5534 12.9452 28.873C12.9452 29.1927 12.88 29.509 12.7535 29.8026C12.6271 30.0962 12.4421 30.361 12.2099 30.5807Z" stroke="black" stroke-width="2" mask="url(#path-1-inside-1_161_689)"/>
<path d="M34.2492 0.633914C33.943 0.633368 33.6405 0.701512 33.3641 0.83333C33.0877 0.965147 32.8444 1.15728 32.6521 1.39558L32.2877 1.66585C25.2238 -0.520876 17.1648 1.08436 11.5547 6.48976C9.20473 8.71857 7.45658 11.5055 6.47284 14.5913C5.48911 17.6771 5.30174 20.9616 5.92817 24.1392L5.72342 24.3276L2.53341 27.3988C1.91633 27.9842 1.42491 28.6891 1.08909 29.4706C0.753266 30.2521 0.580078 31.0937 0.580078 31.9443C0.580078 32.7949 0.753266 33.6365 1.08909 34.418C1.42491 35.1994 1.91633 35.9043 2.53341 36.4897C4.16322 38.0622 6.42366 38.6519 8.5244 38.2588C8.78238 39.4422 9.38435 40.5684 10.3385 41.4856C11.5956 42.6978 13.2296 43.3243 14.8757 43.3693C14.9208 44.9541 15.5719 46.5266 16.8291 47.7387C18.0862 48.9508 19.7242 49.5815 21.3704 49.6224C21.4114 51.2072 22.0666 52.7837 23.3237 53.9959C24.5273 55.1381 26.1039 55.8056 27.7617 55.8748C29.4195 55.9441 31.0463 55.4104 32.3409 54.3726L34.1304 56.0925C36.7512 58.6191 41.0018 58.6191 43.6226 56.0925C44.8757 54.8886 45.5268 53.3243 45.5841 51.7436C47.2221 51.6945 48.8397 51.0679 50.0886 49.864C51.3376 48.6601 51.9928 47.0917 52.042 45.511C53.7058 45.4508 55.2897 44.7819 56.4932 43.6314C57.4883 42.6773 58.1026 41.4938 58.3401 40.2571C59.3941 40.4416 60.4768 40.3762 61.5009 40.0661C62.5251 39.756 63.4622 39.2099 64.2369 38.4717C64.8546 37.8863 65.3466 37.1811 65.6828 36.3993C66.019 35.6174 66.1924 34.7753 66.1924 33.9242C66.1924 33.0732 66.019 32.231 65.6828 31.4492C65.3466 30.6673 64.8546 29.9622 64.2369 29.3767L61.2885 26.5389L61.8904 24.2866C63.1038 19.6818 62.4874 14.7861 60.1705 10.6257C56.7471 4.45864 50.105 0.650294 42.9224 0.650294H37.8855L37.2344 0.633914H34.2492ZM44.2942 15.8509L54.1427 25.3391L54.155 25.3472L61.2844 32.2187C61.516 32.4383 61.7004 32.7028 61.8265 32.996C61.9525 33.2892 62.0175 33.6051 62.0175 33.9242C62.0175 34.2434 61.9525 34.5592 61.8265 34.8524C61.7004 35.1457 61.516 35.4102 61.2844 35.6298C60.8055 36.0819 60.1719 36.3338 59.5133 36.3338C58.8547 36.3338 58.2211 36.0819 57.7422 35.6298L52.3327 30.4209C51.9362 30.0405 51.408 29.8281 50.8585 29.8281C50.309 29.8281 49.7808 30.0405 49.3843 30.4209L49.327 30.4701C49.135 30.6536 48.9821 30.8741 48.8777 31.1184C48.7733 31.3626 48.7195 31.6254 48.7195 31.8911C48.7195 32.1567 48.7733 32.4195 48.8777 32.6637C48.9821 32.908 49.135 33.1285 49.327 33.312L53.5448 37.3743C54.5276 38.3161 54.5276 39.8476 53.5448 40.7936C53.1099 41.2057 52.5451 41.4536 51.9473 41.4947C51.3495 41.5358 50.7561 41.3675 50.2688 41.0188C49.8622 40.725 49.3655 40.583 48.865 40.6174C48.3645 40.6518 47.8919 40.8605 47.5293 41.2072C47.1749 41.546 46.9609 42.0057 46.9298 42.495C46.8987 42.9844 47.0528 43.4675 47.3614 43.8484C47.729 44.3089 47.9103 44.8906 47.8693 45.4784C47.8283 46.0661 47.5682 46.6171 47.1403 47.0221C46.6991 47.4404 46.1245 47.6895 45.5176 47.7255C44.9108 47.7614 44.3107 47.5819 43.8233 47.2186C43.4187 46.9151 42.9199 46.7643 42.4149 46.7928C41.9099 46.8212 41.4312 47.0272 41.0633 47.3742C40.7043 47.7126 40.4866 48.1742 40.4539 48.6664C40.4212 49.1587 40.576 49.645 40.8872 50.0278C41.2652 50.4936 41.453 51.0853 41.4127 51.6839C41.3725 52.2825 41.1072 52.8437 40.6702 53.2547C40.1855 53.7147 39.5427 53.9711 38.8745 53.9711C38.2063 53.9711 37.5635 53.7147 37.0788 53.2547L35.3057 51.5471L35.9527 50.9246C36.5704 50.3392 37.0624 49.634 37.3986 48.8522C37.7348 48.0703 37.9082 47.2282 37.9082 46.3771C37.9082 45.526 37.7348 44.6839 37.3986 43.9021C37.0624 43.1202 36.5704 42.4151 35.9527 41.8296C34.728 40.658 33.1098 39.9862 31.4154 39.9459C31.3649 38.2879 30.6631 36.7167 29.4621 35.5725C28.2358 34.4014 26.616 33.731 24.9208 33.6929C24.8702 32.0349 24.1684 30.4636 22.9675 29.3194C22.1808 28.5706 21.227 28.02 20.1852 27.7131C19.1434 27.4061 18.0435 27.3518 16.9765 27.5544C16.7058 26.3225 16.0743 25.1991 15.1624 24.3276C14.4635 23.6592 13.63 23.1476 12.7177 22.827C11.8053 22.5064 10.835 22.3842 9.87165 22.4685C9.54971 20.0689 9.80124 17.6272 10.6056 15.3436C11.41 13.0601 12.7443 10.9998 14.499 9.33169C16.2725 7.6369 18.3992 6.35558 20.7263 5.57963C23.0535 4.80367 25.5235 4.55231 27.9593 4.84357L22.001 9.22522C21.2387 9.77916 20.5965 10.4818 20.1133 11.2909C19.6301 12.0999 19.3158 12.9984 19.1895 13.9323C19.0632 14.8661 19.1275 15.8158 19.3785 16.7242C19.6294 17.6325 20.0619 18.4805 20.6497 19.217C21.8391 20.7067 23.5567 21.6809 25.4457 21.9372C27.3347 22.1934 29.2497 21.712 30.793 20.5929L37.2467 15.855L44.2942 15.8509ZM24.4253 12.5217L35.0395 4.72891H37.2344C37.4352 4.72699 37.636 4.73246 37.8364 4.74529H42.9224C48.6718 4.74529 53.9175 7.79607 56.5915 12.6159C58.4015 15.8755 58.8765 19.6634 57.9306 23.2383L57.9183 23.2793L46.6161 12.3579C46.233 11.9736 45.7131 11.7571 45.1706 11.7559H36.5711C36.1364 11.7568 35.7133 11.8959 35.363 12.1531L28.3688 17.2883C27.6814 17.7793 26.8326 17.9895 25.9956 17.8761C25.1585 17.7627 24.3962 17.3343 23.8643 16.6781C23.6166 16.3731 23.4341 16.0206 23.3278 15.6423C23.2215 15.264 23.1938 14.868 23.2464 14.4787C23.2989 14.0893 23.4306 13.7148 23.6334 13.3782C23.8361 13.0417 24.1056 12.7502 24.4253 12.5217ZM26.2353 47.7797L26.2762 47.7387L29.4621 44.6675L29.499 44.6347C29.9805 44.1982 30.609 43.9595 31.2589 43.9663C31.9087 43.9731 32.5321 44.225 33.0043 44.6715C33.2359 44.8912 33.4203 45.1557 33.5464 45.4489C33.6724 45.7421 33.7374 46.0579 33.7374 46.3771C33.7374 46.6963 33.6724 47.0121 33.5464 47.3053C33.4203 47.5986 33.2359 47.8631 33.0043 48.0827L29.8143 51.1539C29.3354 51.6061 28.7018 51.8579 28.0432 51.8579C27.3846 51.8579 26.751 51.6061 26.2721 51.1539C26.0436 50.9376 25.8608 50.6775 25.7346 50.3892C25.6085 50.1009 25.5415 49.7902 25.5377 49.4755C25.5339 49.1608 25.5933 48.8485 25.7124 48.5572C25.8315 48.2659 26.012 48.0015 26.2353 47.7797ZM26.5465 41.7928L26.5055 41.8296L23.3196 44.9009L23.2787 44.9377C22.7969 45.3725 22.169 45.6098 21.5201 45.6022C20.8711 45.5946 20.2489 45.3427 19.7775 44.8968C19.5485 44.6795 19.3656 44.4183 19.2397 44.1287C19.1139 43.8392 19.0476 43.5273 19.045 43.2116C19.0423 42.8959 19.1032 42.583 19.2241 42.2913C19.3451 41.9997 19.5235 41.7355 19.7488 41.5143L19.7775 41.4856L22.9634 38.4144L22.992 38.3857C23.473 37.9458 24.1026 37.7042 24.7544 37.7095C25.4062 37.7148 26.0318 37.9666 26.5055 38.4144C26.7347 38.6308 26.918 38.8911 27.0446 39.1798C27.1711 39.4685 27.2383 39.7797 27.2421 40.0949C27.2459 40.4101 27.1863 40.7228 27.0668 41.0145C26.9473 41.3062 26.7704 41.5709 26.5465 41.7928ZM20.015 35.5725L16.825 38.6437L16.7963 38.6724C16.3154 39.1123 15.6857 39.3539 15.0339 39.3486C14.3821 39.3433 13.7565 39.0915 13.2828 38.6437C13.0512 38.4241 12.8668 38.1596 12.7407 37.8664C12.6147 37.5731 12.5497 37.2573 12.5497 36.9381C12.5497 36.619 12.6147 36.3031 12.7407 36.0099C12.8668 35.7167 13.0512 35.4522 13.2828 35.2326L16.4687 32.1613C16.9478 31.708 17.5823 31.4554 18.2418 31.4554C18.9014 31.4554 19.5359 31.708 20.015 32.1613C20.2446 32.3787 20.428 32.6401 20.5542 32.93C20.6805 33.2199 20.7469 33.5323 20.7496 33.8485C20.7523 34.1647 20.6911 34.4782 20.5698 34.7702C20.4485 35.0622 20.2696 35.3267 20.0436 35.5479L20.015 35.5725ZM12.2099 30.5807L9.02399 33.6519C8.54491 34.1052 7.9104 34.3578 7.25085 34.3578C6.5913 34.3578 5.9568 34.1052 5.47772 33.6519C5.24548 33.4322 5.06049 33.1675 4.93407 32.8739C4.80764 32.5803 4.74244 32.264 4.74244 31.9443C4.74244 31.6246 4.80764 31.3083 4.93407 31.0147C5.06049 30.7211 5.24548 30.4563 5.47772 30.2367L8.66772 27.1654C9.14659 26.7133 9.78023 26.4614 10.4388 26.4614C11.0974 26.4614 11.731 26.7133 12.2099 27.1654C12.4421 27.3851 12.6271 27.6498 12.7535 27.9434C12.88 28.2371 12.9452 28.5534 12.9452 28.873C12.9452 29.1927 12.88 29.509 12.7535 29.8026C12.6271 30.0962 12.4421 30.361 12.2099 30.5807Z" stroke="black" stroke-opacity="0.2" stroke-width="2" mask="url(#path-1-inside-1_161_689)"/>
<defs>
<linearGradient id="paint0_linear_161_689" x1="66.1924" y1="29.3107" x2="0.580078" y2="29.3107" gradientUnits="userSpaceOnUse">
<stop stop-color="#CFB013" stop-opacity="0.83"/>
<stop offset="0.0665077" stop-color="#B99B22" stop-opacity="0.851795"/>
<stop offset="0.254062" stop-color="#BA8C3A" stop-opacity="0.756193"/>
<stop offset="0.335393" stop-color="#BB7C55" stop-opacity="0.652721"/>
<stop offset="0.368726" stop-color="#BB775D" stop-opacity="0.621366"/>
</linearGradient>
</defs>
</svg>
