<svg width="73" height="73" viewBox="0 0 73 73" fill="none" xmlns="http://www.w3.org/2000/svg">
<path d="M66.9677 0.600302C69.7856 0.400671 72.0813 2.70923 72.0813 5.53734V43.928C72.0813 46.7561 69.7677 48.9955 66.9959 49.5535C57.9024 51.386 51.7087 59.425 49.5537 66.9956C48.9932 69.7649 46.7563 72.0811 43.9282 72.0811H5.53758C2.70947 72.0811 0.400915 69.7853 0.600546 66.9675C1.83412 49.7732 9.21999 33.5986 21.4057 21.4055C33.5989 9.21974 49.7734 1.83388 66.9677 0.600302ZM38.9067 69.5217H43.9282C45.2437 69.5217 46.6616 68.3777 47.043 66.4889L47.0634 66.3916L47.089 66.2943C47.1863 65.9565 47.2904 65.6178 47.4013 65.2783C49.0623 59.2381 52.8783 54.0938 57.9715 50.7231C60.5245 48.9184 63.4252 47.665 66.4891 47.0427C68.3779 46.6614 69.522 45.2435 69.522 43.928V38.909C61.6072 39.5225 54.1726 42.9457 48.5607 48.5604C42.9374 54.1667 39.512 61.6043 38.9067 69.5217ZM69.522 31.2104V23.5195C57.5238 24.1454 46.1821 29.1908 37.6833 37.6831C29.1972 46.1861 24.1529 57.5253 23.5198 69.5217H31.2107C31.8392 59.5673 36.0792 50.1846 43.1348 43.1346C50.1848 36.0789 59.5676 31.8389 69.522 31.2104ZM69.522 15.8337V8.1479C53.4492 8.7882 38.2073 15.4588 26.8316 26.8313C15.4696 38.2143 8.80089 53.4519 8.14814 69.5217H15.8339C16.4797 55.4891 22.3359 42.2017 32.2575 32.2572C42.1949 22.3252 55.4865 16.4673 69.522 15.8337ZM47.4013 65.2808C49.0623 59.2407 52.8783 54.0964 57.9715 50.7231C52.7555 54.3702 49.1519 59.9317 47.4013 65.2783" fill="url(#paint0_linear_161_655)"/>
<defs>
<linearGradient id="paint0_linear_161_655" x1="72.0813" y1="36.3347" x2="0.588501" y2="36.3347" gradientUnits="userSpaceOnUse">
<stop stop-color="#CFB013" stop-opacity="0.83"/>
<stop offset="0.0665077" stop-color="#B99B22" stop-opacity="0.851795"/>
<stop offset="0.254062" stop-color="#BA8C3A" stop-opacity="0.756193"/>
<stop offset="0.335393" stop-color="#BB7C55" stop-opacity="0.652721"/>
<stop offset="0.368726" stop-color="#BB775D" stop-opacity="0.621366"/>
</linearGradient>
</defs>
</svg>
