<svg width="51" height="40" viewBox="0 0 51 40" fill="none" xmlns="http://www.w3.org/2000/svg">
<path d="M43.2336 3.78679C39.8783 2.22715 36.3344 1.12203 32.6938 0.5C32.2299 1.30879 31.7151 2.40521 31.3532 3.26562C27.4817 2.69203 23.5483 2.69203 19.6768 3.26562C19.3149 2.40521 18.7709 1.30879 18.3338 0.5C14.6895 1.11309 11.1429 2.21855 7.7891 3.78679C1.11791 13.7529 -0.686497 23.4854 0.216919 33.0852C4.12615 35.99 8.49278 38.2043 13.1319 39.6342C14.1735 38.2097 15.0963 36.7 15.8907 35.1207C14.368 34.5455 12.9279 33.8424 11.5339 33.0065C11.8958 32.746 12.2552 32.4583 12.5903 32.1707C20.9931 36.0598 30.0928 36.0598 38.3911 32.1707C38.753 32.4583 39.0881 32.746 39.4475 33.0065C38.056 33.8424 36.6134 34.5455 35.0932 35.1207C35.8868 36.7 36.8087 38.2097 37.8495 39.6342C42.4904 38.2087 46.8577 35.9941 50.7645 33.0852C51.8743 21.9735 49.0111 12.3172 43.236 3.78679M17.0467 27.1631C14.521 27.1631 12.4592 24.84 12.4592 21.9981C12.4592 19.1563 14.47 16.8307 17.0491 16.8307C19.5991 16.8307 21.6876 19.1538 21.6342 21.9981C21.6342 24.84 19.5991 27.1631 17.0467 27.1631ZM33.9833 27.1606C31.4576 27.1606 29.3934 24.8375 29.3934 21.9957C29.3934 19.1538 31.4042 16.8283 33.9833 16.8283C36.5333 16.8283 38.6218 19.1514 38.5708 21.9957C38.5708 24.8375 36.56 27.1582 33.9809 27.1582" fill="white"/>
</svg>
