<svg width="59" height="60" viewBox="0 0 59 60" fill="none" xmlns="http://www.w3.org/2000/svg">
<path d="M28 4.5C12.8063 4.5 0.5 16.2075 0.5 30.6474C0.5 42.2024 8.37875 52.0012 19.3031 55.4548C20.6781 55.701 21.1823 54.8927 21.1823 54.1976C21.1823 53.5766 21.1594 51.9315 21.1479 49.7525C13.4983 51.3301 11.885 46.2444 11.885 46.2444C10.6337 43.2265 8.82563 42.4203 8.82563 42.4203C6.33458 40.7992 9.01813 40.8319 9.01813 40.8319C11.7796 41.0149 13.2302 43.5251 13.2302 43.5251C15.6823 47.5234 19.6675 46.3686 21.2396 45.6996C21.4871 44.0088 22.1952 42.8561 22.9813 42.2024C16.874 41.5487 10.455 39.3001 10.455 29.2812C10.455 26.4268 11.5206 24.0953 13.2852 22.265C12.9758 21.6048 12.0477 18.9465 13.5258 15.3447C13.5258 15.3447 15.829 14.643 21.0883 18.0248C23.2883 17.443 25.6258 17.1554 27.9633 17.1423C30.3008 17.1554 32.6383 17.443 34.8383 18.0248C40.0633 14.643 42.3665 15.3447 42.3665 15.3447C43.8446 18.9465 42.9165 21.6048 42.6415 22.265C44.3946 24.0953 45.4602 26.4268 45.4602 29.2812C45.4602 39.3262 39.0321 41.5378 32.9133 42.1806C33.8758 42.9651 34.7696 44.5688 34.7696 47.0179C34.7696 50.5173 34.7352 53.3282 34.7352 54.178C34.7352 54.8643 35.2165 55.6814 36.6258 55.42C47.6281 51.9903 55.5 42.185 55.5 30.6474C55.5 16.2075 43.1869 4.5 28 4.5Z" fill="white"/>
</svg>
