<svg width="59" height="60" viewBox="0 0 59 60" fill="none" xmlns="http://www.w3.org/2000/svg">
<path d="M59 13.9151V48.1081C59 50.3304 57.2005 52.1299 54.9782 52.1299H45.5898V29.3362L29.5 41.4067L13.4102 29.3362V52.1324H4.02183C3.49347 52.1324 2.97029 52.0283 2.48218 51.826C1.99407 51.6237 1.55059 51.3273 1.1771 50.9535C0.803605 50.5798 0.50741 50.1362 0.305439 49.6479C0.103467 49.1597 -0.000322208 48.6364 7.51393e-07 48.1081V13.9151C7.51393e-07 8.94192 5.67629 6.10254 9.65388 9.08696L13.4102 11.9067L29.5 23.9722L45.5898 11.9018L49.3461 9.08696C53.3212 6.105 59 8.94192 59 13.9151Z" fill="white"/>
</svg>
