<svg width="81" height="82" viewBox="0 0 81 82" fill="none" xmlns="http://www.w3.org/2000/svg">
<path d="M22.3151 64.7807L30.57 61.4073C29.8426 59.2385 29.2209 57.0307 28.7048 54.784C28.191 52.5374 27.8162 50.2595 27.5804 47.9506L23.2093 50.8735C22.9113 51.0892 22.6866 51.3362 22.5353 51.6142C22.3841 51.8923 22.3095 52.2015 22.3118 52.5418L22.3151 64.7807ZM33.9267 61.0203H47.2734C48.2744 58.3265 49.0807 55.3802 49.6925 52.1814C50.3042 48.9827 50.61 45.6516 50.61 42.1881C50.61 37.152 49.8426 32.5151 48.3077 28.2776C46.7729 24.04 44.2036 19.947 40.6 15.9986C36.9964 19.9515 34.4272 24.0456 32.8923 28.2809C31.3575 32.5162 30.59 37.1531 30.59 42.1915C30.59 45.6572 30.8959 48.9883 31.5076 52.1848C32.1193 55.3813 32.9257 58.3265 33.9267 61.0203ZM40.6 42.6686C39.192 42.6686 38.0063 42.1859 37.0431 41.2205C36.0777 40.2573 35.595 39.0717 35.595 37.6636C35.595 36.2555 36.0777 35.0699 37.0431 34.1067C38.0086 33.1435 39.1942 32.6608 40.6 32.6586C42.0059 32.6564 43.1915 33.1391 44.1569 34.1067C45.1223 35.0699 45.605 36.2555 45.605 37.6636C45.605 39.0717 45.1223 40.2573 44.1569 41.2205C43.1915 42.1837 42.0059 42.6664 40.6 42.6686ZM58.885 64.7807V52.6085C58.885 52.266 58.8116 51.9457 58.6647 51.6476C58.5135 51.3473 58.2877 51.0892 57.9874 50.8735L53.6197 47.9506C53.3839 50.2595 52.9546 52.762 52.3318 55.4581C51.7089 58.1541 51.1417 60.1583 50.6301 61.4707L58.885 64.7807ZM40.6 11.5942C45.2069 15.6828 48.5825 20.2896 50.7268 25.4147C52.8734 30.5398 53.9467 36.2489 53.9467 42.5418C53.9467 42.7976 53.9578 43.0646 53.9801 43.3426C54.0023 43.6207 53.9912 43.9099 53.9467 44.2102L59.7358 48.1107C60.5099 48.5934 61.1183 49.2385 61.561 50.046C62.0036 50.8535 62.225 51.7076 62.225 52.6085V69.6823L48.9617 64.3569H32.175L18.9751 69.6823V52.5451C18.9751 51.6465 19.1864 50.7923 19.6091 49.9826C20.0295 49.1751 20.6267 48.53 21.4009 48.0473L27.2534 44.1434V42.5418C27.2534 36.2466 28.3267 30.5376 30.4733 25.4147C32.6176 20.2896 35.9932 15.6828 40.6 11.5942Z" fill="#E3E3E3"/>
</svg>
