<svg width="69" height="69" viewBox="0 0 69 69" fill="none" xmlns="http://www.w3.org/2000/svg">
<path d="M34.25 68.375C29.5294 68.375 25.0931 67.4787 20.9413 65.686C16.7894 63.8933 13.1778 61.4624 10.1066 58.3934C7.03532 55.3245 4.60448 51.7129 2.81405 47.5588C1.02363 43.4046 0.127279 38.9684 0.125004 34.25C0.122729 29.5317 1.01908 25.0954 2.81405 20.9413C4.60903 16.7871 7.03987 13.1755 10.1066 10.1066C13.1733 7.03759 16.7848 4.60675 20.9413 2.81405C25.0977 1.02135 29.5339 0.125 34.25 0.125C38.9661 0.125 43.4023 1.02135 47.5588 2.81405C51.7152 4.60675 55.3268 7.03759 58.3935 10.1066C61.4602 13.1755 63.8921 16.7871 65.6894 20.9413C67.4866 25.0954 68.3818 29.5317 68.375 34.25C68.3682 38.9684 67.4718 43.4046 65.686 47.5588C63.9001 51.7129 61.4693 55.3245 58.3935 58.3934C55.3177 61.4624 51.7061 63.8944 47.5588 65.6894C43.4114 67.4843 38.9752 68.3796 34.25 68.375ZM34.25 61.55C41.8713 61.55 48.3266 58.9053 53.6159 53.6159C58.9053 48.3266 61.55 41.8713 61.55 34.25C61.55 26.6288 58.9053 20.1734 53.6159 14.8841C48.3266 9.59469 41.8713 6.95 34.25 6.95C26.6288 6.95 20.1734 9.59469 14.8841 14.8841C9.59469 20.1734 6.95001 26.6288 6.95001 34.25C6.95001 41.8713 9.59469 48.3266 14.8841 53.6159C20.1734 58.9053 26.6288 61.55 34.25 61.55ZM34.25 54.725C28.5625 54.725 23.7281 52.7344 19.7469 48.7531C15.7656 44.7719 13.775 39.9375 13.775 34.25C13.775 28.5625 15.7656 23.7281 19.7469 19.7469C23.7281 15.7656 28.5625 13.775 34.25 13.775C39.9375 13.775 44.7719 15.7656 48.7531 19.7469C52.7344 23.7281 54.725 28.5625 54.725 34.25C54.725 39.9375 52.7344 44.7719 48.7531 48.7531C44.7719 52.7344 39.9375 54.725 34.25 54.725ZM34.25 47.9C38.0038 47.9 41.2172 46.5634 43.8903 43.8903C46.5634 41.2172 47.9 38.0037 47.9 34.25C47.9 30.4963 46.5634 27.2828 43.8903 24.6097C41.2172 21.9366 38.0038 20.6 34.25 20.6C30.4963 20.6 27.2828 21.9366 24.6097 24.6097C21.9366 27.2828 20.6 30.4963 20.6 34.25C20.6 38.0037 21.9366 41.2172 24.6097 43.8903C27.2828 46.5634 30.4963 47.9 34.25 47.9ZM34.25 41.075C32.3731 41.075 30.767 40.4073 29.4316 39.0719C28.0961 37.7364 27.4273 36.1292 27.425 34.25C27.4227 32.3708 28.0916 30.7647 29.4316 29.4316C30.7715 28.0984 32.3777 27.4296 34.25 27.425C36.1223 27.4205 37.7296 28.0893 39.0719 29.4316C40.4141 30.7738 41.0818 32.38 41.075 34.25C41.0682 36.1201 40.4005 37.7273 39.0719 39.0719C37.7433 40.4164 36.136 41.0841 34.25 41.075Z" fill="url(#paint0_linear_161_672)"/>
<defs>
<linearGradient id="paint0_linear_161_672" x1="68.3751" y1="34.25" x2="0.125" y2="34.25" gradientUnits="userSpaceOnUse">
<stop stop-color="#CFB013" stop-opacity="0.83"/>
<stop offset="0.0665077" stop-color="#B99B22" stop-opacity="0.851795"/>
<stop offset="0.254062" stop-color="#BA8C3A" stop-opacity="0.756193"/>
<stop offset="0.335393" stop-color="#BB7C55" stop-opacity="0.652721"/>
<stop offset="0.368726" stop-color="#BB775D" stop-opacity="0.621366"/>
</linearGradient>
</defs>
</svg>
