<svg width="15" height="15" viewBox="0 0 15 15" fill="none" xmlns="http://www.w3.org/2000/svg">
<path d="M7.5 10.625C8.31625 10.625 9.01125 11.1469 9.26875 11.875H12.5C12.6658 11.875 12.8247 11.9408 12.9419 12.0581C13.0592 12.1753 13.125 12.3342 13.125 12.5C13.125 12.6658 13.0592 12.8247 12.9419 12.9419C12.8247 13.0592 12.6658 13.125 12.5 13.125H9.26813C9.13874 13.4905 8.89925 13.807 8.58261 14.0308C8.26597 14.2546 7.88775 14.3748 7.5 14.3748C7.11225 14.3748 6.73403 14.2546 6.41739 14.0308C6.10075 13.807 5.86126 13.4905 5.73187 13.125H2.5C2.33424 13.125 2.17527 13.0592 2.05806 12.9419C1.94085 12.8247 1.875 12.6658 1.875 12.5C1.875 12.3342 1.94085 12.1753 2.05806 12.0581C2.17527 11.9408 2.33424 11.875 2.5 11.875H5.73125C5.86055 11.5093 6.1001 11.1927 6.41689 10.9688C6.73367 10.7449 7.11209 10.6248 7.5 10.625ZM10.625 1.25C10.9565 1.25 11.2745 1.3817 11.5089 1.61612C11.7433 1.85054 11.875 2.16848 11.875 2.5V7.5C11.875 7.83152 11.7433 8.14946 11.5089 8.38388C11.2745 8.6183 10.9565 8.75 10.625 8.75H9.00875L7.94187 9.81687C7.83425 9.92449 7.69107 9.98913 7.53918 9.99868C7.38728 10.0082 7.23713 9.96203 7.11688 9.86875L7.05813 9.81687L5.99062 8.75H4.375C4.05964 8.7501 3.7559 8.631 3.52466 8.41656C3.29342 8.20213 3.15178 7.90822 3.12813 7.59375L3.125 7.5V2.5C3.125 2.16848 3.2567 1.85054 3.49112 1.61612C3.72554 1.3817 4.04348 1.25 4.375 1.25H10.625Z" fill="white"/>
</svg>
